999
dxfrw 0.6.3
  0
SECTION
  2
HEADER
  9
$ACADVER
  1
AC1021
  9
$DWGCODEPAGE
  3
ANSI_1252
  9
$INSBASE
 10
0
 20
0
 30
0
  9
$EXTMIN
 10
1e+20
 20
1e+20
 30
1e+20
  9
$EXTMAX
 10
-1e+20
 20
-1e+20
 30
-1e+20
  9
$LIMMIN
 10
0
 20
0
  9
$LIMMAX
 10
420
 20
297
  9
$ORTHOMODE
 70
    0
  9
$REGENMODE
 70
    1
  9
$FILLMODE
 70
    1
  9
$QTEXTMODE
 70
    0
  9
$MIRRTEXT
 70
    0
  9
$LTSCALE
 40
1
  9
$ATTMODE
 70
    0
  9
$TEXTSIZE
 40
2.5
  9
$TRACEWID
 40
15.68
  9
$TEXTSTYLE
  7
STANDARD
  9
$CLAYER
  8
0
  9
$CELTYPE
  6
BYLAYER
  9
$CECOLOR
 62
  256
  9
$CELTSCALE
 40
1
  9
$DISPSILH
 70
    0
  9
$DIMSCALE
 40
1
  9
$DIMASZ
 40
2.5
  9
$DIMEXO
 40
0.625
  9
$DIMDLI
 40
3.75
  9
$DIMRND
 40
0
  9
$DIMDLE
 40
0
  9
$DIMEXE
 40
1.25
  9
$DIMTP
 40
0
  9
$DIMTM
 40
0
  9
$DIMTXT
 40
2.5
  9
$DIMCEN
 40
2.5
  9
$DIMTSZ
 40
0
  9
$DIMTOL
 70
    0
  9
$DIMLIM
 70
    0
  9
$DIMTIH
 70
    0
  9
$DIMTOH
 70
    0
  9
$DIMSE1
 70
    0
  9
$DIMSE2
 70
    0
  9
$DIMTAD
 70
    1
  9
$DIMZIN
 70
    8
  9
$DIMBLK
  1

  9
$DIMASO
 70
    1
  9
$DIMSHO
 70
    1
  9
$DIMPOST
  1

  9
$DIMAPOST
  1

  9
$DIMALT
 70
    0
  9
$DIMALTD
 70
    3
  9
$DIMALTF
 40
0.03937
  9
$DIMLFAC
 40
1
  9
$DIMTOFL
 70
    1
  9
$DIMTVP
 40
0
  9
$DIMTIX
 70
    0
  9
$DIMSOXD
 70
    0
  9
$DIMSAH
 70
    0
  9
$DIMBLK1
  1

  9
$DIMBLK2
  1

  9
$DIMSTYLE
  2
STANDARD
  9
$DIMCLRD
 70
    0
  9
$DIMCLRE
 70
    0
  9
$DIMCLRT
 70
    0
  9
$DIMTFAC
 40
1
  9
$DIMGAP
 40
0.625
  9
$DIMJUST
 70
    0
  9
$DIMSD1
 70
    0
  9
$DIMSD2
 70
    0
  9
$DIMTOLJ
 70
    0
  9
$DIMTZIN
 70
    8
  9
$DIMALTZ
 70
    0
  9
$DIMALTTZ
 70
    0
  9
$DIMUPT
 70
    0
  9
$DIMDEC
 70
    2
  9
$DIMTDEC
 70
    2
  9
$DIMALTU
 70
    2
  9
$DIMALTTD
 70
    3
  9
$DIMTXSTY
  7
STANDARD
  9
$DIMAUNIT
 70
    0
  9
$DIMADEC
 70
    0
  9
$DIMALTRND
 40
0
  9
$DIMAZIN
 70
    0
  9
$DIMDSEP
 70
   44
  9
$DIMATFIT
 70
    3
  9
$DIMFRAC
 70
    0
  9
$DIMLDRBLK
  1
STANDARD
  9
$DIMLUNIT
 70
    2
  9
$DIMLWD
 70
   -2
  9
$DIMLWE
 70
   -2
  9
$DIMTMOVE
 70
    0
  9
$DIMFXL
 40
1
  9
$DIMFXLON
 70
    0
  9
$DIMJOGANG
 40
0.7854
  9
$DIMTFILL
 70
    0
  9
$DIMTFILLCLR
 70
    0
  9
$DIMARCSYM
 70
    0
  9
$DIMLTYPE
  6

  9
$DIMLTEX1
  6

  9
$DIMLTEX2
  6

  9
$LUNITS
 70
    2
  9
$LUPREC
 70
    4
  9
$SKETCHINC
 40
1
  9
$FILLETRAD
 40
0
  9
$AUNITS
 70
    0
  9
$AUPREC
 70
    2
  9
$MENU
  1
.
  9
$ELEVATION
 40
0
  9
$PELEVATION
 40
0
  9
$THICKNESS
 40
0
  9
$LIMCHECK
 70
    0
  9
$CHAMFERA
 40
0
  9
$CHAMFERB
 40
0
  9
$CHAMFERC
 40
0
  9
$CHAMFERD
 40
0
  9
$SKPOLY
 70
    0
  9
$USRTIMER
 70
    1
  9
$ANGBASE
 50
0
  9
$ANGDIR
 70
    0
  9
$PDMODE
 70
   34
  9
$PDSIZE
 40
0
  9
$PLINEWID
 40
0
  9
$SPLFRAME
 70
    0
  9
$SPLINETYPE
 70
    2
  9
$SPLINESEGS
 70
    8
  9
$HANDSEED
  5
20000
  9
$SURFTAB1
 70
    6
  9
$SURFTAB2
 70
    6
  9
$SURFTYPE
 70
    6
  9
$SURFU
 70
    6
  9
$SURFV
 70
    6
  9
$UCSBASE
  2

  9
$UCSNAME
  2

  9
$UCSORG
 10
0
 20
0
 30
0
  9
$UCSXDIR
 10
1
 20
0
 30
0
  9
$UCSYDIR
 10
0
 20
1
 30
0
  9
$UCSORTHOREF
  2

  9
$UCSORTHOVIEW
 70
    0
  9
$UCSORGTOP
 10
0
 20
0
 30
0
  9
$UCSORGBOTTOM
 10
0
 20
0
 30
0
  9
$UCSORGLEFT
 10
0
 20
0
 30
0
  9
$UCSORGRIGHT
 10
0
 20
0
 30
0
  9
$UCSORGFRONT
 10
0
 20
0
 30
0
  9
$UCSORGBACK
 10
0
 20
0
 30
0
  9
$PUCSBASE
  2

  9
$PUCSNAME
  2

  9
$PUCSORG
 10
0
 20
0
 30
0
  9
$PUCSXDIR
 10
1
 20
0
 30
0
  9
$PUCSYDIR
 10
0
 20
1
 30
0
  9
$PUCSORTHOREF
  2

  9
$PUCSORTHOVIEW
 70
    0
  9
$PUCSORGTOP
 10
0
 20
0
 30
0
  9
$PUCSORGBOTTOM
 10
0
 20
0
 30
0
  9
$PUCSORGLEFT
 10
0
 20
0
 30
0
  9
$PUCSORGRIGHT
 10
0
 20
0
 30
0
  9
$PUCSORGFRONT
 10
0
 20
0
 30
0
  9
$PUCSORGBACK
 10
0
 20
0
 30
0
  9
$USERI1
 70
    0
  9
$USERI2
 70
    0
  9
$USERI3
 70
    0
  9
$USERI4
 70
    0
  9
$USERI5
 70
    0
  9
$USERR1
 40
0
  9
$USERR2
 40
0
  9
$USERR3
 40
0
  9
$USERR4
 40
0
  9
$USERR5
 40
0
  9
$WORLDVIEW
 70
    1
  9
$SHADEDGE
 70
    3
  9
$SHADEDIF
 70
   70
  9
$TILEMODE
 70
    1
  9
$MAXACTVP
 70
   64
  9
$PINSBASE
 10
0
 20
0
 30
0
  9
$PLIMCHECK
 70
    0
  9
$PEXTMIN
 10
0
 20
0
 30
0
  9
$PEXTMAX
 10
0
 20
0
 30
0
  9
$PLIMMIN
 10
0
 20
0
  9
$PLIMMAX
 10
297
 20
210
  9
$UNITMODE
 70
    0
  9
$VISRETAIN
 70
    1
  9
$PLINEGEN
 70
    0
  9
$PSLTSCALE
 70
    1
  9
$TREEDEPTH
 70
 3020
  9
$CMLSTYLE
  2
Standard
  9
$CMLJUST
 70
    0
  9
$CMLSCALE
 40
20
  9
$PROXYGRAPHICS
 70
    1
  9
$MEASUREMENT
 70
    1
  9
$CELWEIGHT
370
   -1
  9
$ENDCAPS
280
    0
  9
$JOINSTYLE
280
    0
  9
$LWDISPLAY
290
    0
  9
$INSUNITS
 70
    0
  9
$HYPERLINKBASE
  1

  9
$STYLESHEET
  1

  9
$XEDIT
290
    1
  9
$CEPSNTYPE
380
    0
  9
$PSTYLEMODE
290
    1
  9
$EXTNAMES
290
    1
  9
$PSVPSCALE
 40
0
  9
$OLESTARTUP
290
    0
  9
$SORTENTS
280
  127
  9
$INDEXCTL
280
    0
  9
$HIDETEXT
280
    1
  9
$XCLIPFRAME
290
    0
  9
$HALOGAP
280
    0
  9
$OBSCOLOR
 70
  257
  9
$OBSLTYPE
280
    0
  9
$INTERSECTIONDISPLAY
280
    0
  9
$INTERSECTIONCOLOR
 70
  257
  9
$DIMASSOC
280
    1
  9
$PROJECTNAME
  1

  9
$CAMERADISPLAY
290
    0
  9
$LENSLENGTH
 40
50
  9
$CAMERAHEIGHT
 40
0
  9
$STEPSPERSEC
 40
2
  9
$STEPSIZE
 40
50
  9
$3DDWFPREC
 40
2
  9
$PSOLWIDTH
 40
5
  9
$PSOLHEIGHT
 40
80
  9
$LOFTANG1
 40
1.570796326794897
  9
$LOFTANG2
 40
1.570796326794897
  9
$LOFTMAG1
 40
0
  9
$LOFTMAG2
 40
0
  9
$LOFTPARAM
 70
    7
  9
$LOFTNORMALS
280
    1
  9
$LATITUDE
 40
1
  9
$LONGITUDE
 40
1
  9
$NORTHDIRECTION
 40
0
  9
$TIMEZONE
 70
-8000
  9
$LIGHTGLYPHDISPLAY
280
    1
  9
$TILEMODELIGHTSYNCH
280
    1
  9
$SOLIDHIST
280
    1
  9
$SHOWHIST
280
    1
  9
$DWFFRAME
280
    2
  9
$DGNFRAME
280
    0
  9
$REALWORLDSCALE
290
    1
  9
$INTERFERECOLOR
 62
    1
  9
$CSHADOW
280
    0
  9
$SHADOWPLANELOCATION
 40
0
  0
ENDSEC
  0
SECTION
  2
CLASSES
  0
ENDSEC
  0
SECTION
  2
TABLES
  0
TABLE
  2
VPORT
  5
8
330
0
100
AcDbSymbolTable
 70
    1
  0
VPORT
  5
31
330
2
100
AcDbSymbolTableRecord
100
AcDbViewportTableRecord
  2
*ACTIVE
 70
    0
 10
0
 20
0
 11
1
 21
1
 12
0.651828
 22
-0.16
 13
0
 23
0
 14
10
 24
10
 15
10
 25
10
 16
0
 26
0
 36
1
 17
0
 27
0
 37
0
 40
5.13732
 41
2.4426877
 42
50
 43
0
 44
0
 50
0
 51
0
 71
    0
 72
  100
 73
    1
 74
    3
 75
    0
 76
    0
 77
    0
 78
    0
281
    0
 65
    1
110
0
120
0
130
0
111
1
121
0
131
0
112
0
122
1
132
0
 79
    0
146
0
348
10020
 60
    7
 61
    5
292
1
282
    1
141
0
142
0
 63
  250
421
3358443
  0
ENDTAB
  0
TABLE
  2
LTYPE
  5
5
330
0
100
AcDbSymbolTable
 70
    4
  0
LTYPE
  5
14
330
5
100
AcDbSymbolTableRecord
100
AcDbLinetypeTableRecord
  2
ByBlock
 70
    0
  3

 72
   65
 73
    0
 40
0
  0
LTYPE
  5
15
330
5
100
AcDbSymbolTableRecord
100
AcDbLinetypeTableRecord
  2
ByLayer
 70
    0
  3

 72
   65
 73
    0
 40
0
  0
LTYPE
  5
16
330
5
100
AcDbSymbolTableRecord
100
AcDbLinetypeTableRecord
  2
Continuous
 70
    0
  3
Solid line
 72
   65
 73
    0
 40
0
  0
LTYPE
  5
32
330
5
100
AcDbSymbolTableRecord
100
AcDbLinetypeTableRecord
  2
DASHED
 70
    0
  3

 72
   65
 73
    2
 40
3
 49
1
 74
    0
 49
-2
 74
    0
  0
LTYPE
  5
33
330
5
100
AcDbSymbolTableRecord
100
AcDbLinetypeTableRecord
  2
DASHED
 70
    0
  3

 72
   65
 73
    2
 40
2
 49
1
 74
    0
 49
-1
 74
    0
  0
LTYPE
  5
34
330
5
100
AcDbSymbolTableRecord
100
AcDbLinetypeTableRecord
  2
DASHEDX2
 70
    0
  3

 72
   65
 73
    2
 40
3
 49
2
 74
    0
 49
-1
 74
    0
  0
LTYPE
  5
35
330
5
100
AcDbSymbolTableRecord
100
AcDbLinetypeTableRecord
  2
DASHDOT
 70
    0
  3

 72
   65
 73
    4
 40
3
 49
1
 74
    0
 49
-1
 74
    0
 49
0
 74
    0
 49
-1
 74
    0
  0
LTYPE
  5
36
330
5
100
AcDbSymbolTableRecord
100
AcDbLinetypeTableRecord
  2
DIVIDE
 70
    0
  3

 72
   65
 73
    6
 40
4
 49
1
 74
    0
 49
-1
 74
    0
 49
0
 74
    0
 49
-1
 74
    0
 49
0
 74
    0
 49
-1
 74
    0
  0
LTYPE
  5
37
330
5
100
AcDbSymbolTableRecord
100
AcDbLinetypeTableRecord
  2
DOT
 70
    0
  3

 72
   65
 73
    2
 40
1
 49
1
 74
    0
 49
0
 74
    0
  0
ENDTAB
  0
TABLE
  2
LAYER
  5
2
330
0
100
AcDbSymbolTable
 70
    1
  0
LAYER
  5
38
330
2
100
AcDbSymbolTableRecord
100
AcDbLayerTableRecord
  2
dimensions
 70
    0
 62
    7
  6
CONTINUOUS
370
   -3
390
F
  0
LAYER
  5
39
330
2
100
AcDbSymbolTableRecord
100
AcDbLayerTableRecord
  2
text
 70
    0
 62
    7
  6
CONTINUOUS
370
   -3
390
F
  0
LAYER
  5
3A
330
2
100
AcDbSymbolTableRecord
100
AcDbLayerTableRecord
  2
s003-#def-inactive-grp
 70
    0
 62
    7
  6
CONTINUOUS
370
   -3
390
F
  0
LAYER
  5
10
330
2
100
AcDbSymbolTableRecord
100
AcDbLayerTableRecord
  2
0
 70
    0
 62
    7
  6
CONTINUOUS
370
   -3
390
F
  0
ENDTAB
  0
TABLE
  2
STYLE
  5
3
330
0
100
AcDbSymbolTable
 70
    3
  0
STYLE
  5
3B
330
2
100
AcDbSymbolTableRecord
100
AcDbTextStyleTableRecord
  2
unicode
 70
    0
 40
0
 41
1
 50
0
 71
    0
 42
1
  3
unicode
  4

  0
STYLE
  5
3C
330
2
100
AcDbSymbolTableRecord
100
AcDbTextStyleTableRecord
  2
Standard
 70
    0
 40
0
 41
1
 50
0
 71
    0
 42
1
  3
txt
  4

  0
ENDTAB
  0
TABLE
  2
VIEW
  5
6
330
0
100
AcDbSymbolTable
 70
    0
  0
ENDTAB
  0
TABLE
  2
UCS
  5
7
330
0
100
AcDbSymbolTable
 70
    0
  0
ENDTAB
  0
TABLE
  2
APPID
  5
9
330
0
100
AcDbSymbolTable
 70
    1
  0
APPID
  5
12
330
9
100
AcDbSymbolTableRecord
100
AcDbRegAppTableRecord
  2
ACAD
 70
    0
  0
ENDTAB
  0
TABLE
  2
DIMSTYLE
  5
A
330
0
100
AcDbSymbolTable
 70
    1
100
AcDbDimStyleTable
 71
    1
  0
DIMSTYLE
105
3D
330
A
100
AcDbSymbolTableRecord
100
AcDbDimStyleTableRecord
  2
Standard
 70
    0
 40
1
 41
2.5
 42
0.625
 43
3.75
 44
1.25
 45
0
 46
0
 47
0
 48
0
140
2.5
141
2.5
142
0
143
0.03937007874015748
144
1
145
0
146
1
147
0.625
148
0
 71
    0
 72
    0
 73
    0
 74
    0
 75
    0
 76
    0
 77
    1
 78
    8
 79
    0
170
    0
171
    3
172
    1
173
    0
174
    0
175
    0
176
    0
177
    0
178
    0
179
    0
271
    2
272
    2
273
    2
274
    3
275
    0
276
    0
277
    2
278
   44
279
    0
280
    0
281
    0
282
    0
283
    0
284
    8
285
    0
286
    0
288
    0
289
    3
341

371
   -2
372
   -2
  0
ENDTAB
  0
TABLE
  2
BLOCK_RECORD
  5
1
330
0
100
AcDbSymbolTable
 70
    2
  0
BLOCK_RECORD
  5
1F
330
1
100
AcDbSymbolTableRecord
100
AcDbBlockTableRecord
  2
*Model_Space
 70
    0
280
    1
281
    0
  0
BLOCK_RECORD
  5
1E
330
1
100
AcDbSymbolTableRecord
100
AcDbBlockTableRecord
  2
*Paper_Space
 70
    0
280
    1
281
    0
  0
ENDTAB
  0
ENDSEC
  0
SECTION
  2
BLOCKS
  0
BLOCK
  5
20
330
1F
100
AcDbEntity
  8
0
100
AcDbBlockBegin
  2
*Model_Space
 70
    0
 10
0
 20
0
 30
0
  3
*Model_Space
  1

  0
ENDBLK
  5
21
330
1F
100
AcDbEntity
  8
0
100
AcDbBlockEnd
  0
BLOCK
  5
1C
330
1B
100
AcDbEntity
  8
0
100
AcDbBlockBegin
  2
*Paper_Space
 70
    0
 10
0
 20
0
 30
0
  3
*Paper_Space
  1

  0
ENDBLK
  5
1D
330
1F
100
AcDbEntity
  8
0
100
AcDbBlockEnd
  0
ENDSEC
  0
SECTION
  2
ENTITIES
  0
LINE
  5
3E
100
AcDbEntity
  8
s003-#def-inactive-grp
  6
CONTINUOUS
 62
   36
420
8342528
370
   20
100
AcDbLine
 10
42.69977896185354
 20
-54.89415523190965
 11
53.54674714425364
 21
-61.15665523190964
  0
LINE
  5
3F
100
AcDbEntity
  8
s003-#def-inactive-grp
  6
CONTINUOUS
 62
   36
420
8342528
370
   20
100
AcDbLine
 10
57.64482335560695
 20
-60.05857902055632
 11
76.2896871606322
 21
-27.76472761005055
  0
LINE
  5
40
100
AcDbEntity
  8
s003-#def-inactive-grp
  6
CONTINUOUS
 62
   36
420
8342528
370
   20
100
AcDbLine
 10
72.675
 20
-6.639684503646951
 11
72.675
 21
37.3375
  0
LINE
  5
41
100
AcDbEntity
  8
s003-#def-inactive-grp
  6
CONTINUOUS
 62
   36
420
8342528
370
   20
100
AcDbLine
 10
-72.675
 20
34.48
 11
-72.675
 21
-29.67
  0
LINE
  5
42
100
AcDbEntity
  8
s003-#def-inactive-grp
  6
CONTINUOUS
 62
   36
420
8342528
370
   20
100
AcDbLine
 10
-69.675
 20
-32.67
 11
-66.15000000000001
 21
-32.67
  0
LINE
  5
43
100
AcDbEntity
  8
s003-#def-inactive-grp
  6
CONTINUOUS
 62
   36
420
8342528
370
   20
100
AcDbLine
 10
-63.15000000000001
 20
-35.67
 11
-63.15000000000001
 21
-48.72000000000001
  0
LINE
  5
44
100
AcDbEntity
  8
s003-#def-inactive-grp
  6
CONTINUOUS
 62
   36
420
8342528
370
   20
100
AcDbLine
 10
-60.15000000000001
 20
-51.72000000000001
 11
-57.15000000000001
 21
-51.72000000000001
  0
SPLINE
  5
45
100
AcDbEntity
  8
s003-#def-inactive-grp
  6
CONTINUOUS
 62
   36
420
8342528
370
   20
100
AcDbSpline
210
0
220
0
230
0
 70
    8
 71
    3
 72
    8
 73
    4
 74
    0
 42
1e-07
 43
1e-07
 40
0
 40
0
 40
0
 40
0
 40
1
 40
1
 40
1
 40
1
 10
-57.15000000000001
 20
-51.72000000000001
 30
0
 10
-19.05
 20
-51.72000000000001
 30
0
 10
-19.05
 20
-46.005
 30
0
 10
9.524999999999997
 20
-46.005
 30
0
  0
ARC
  5
46
100
AcDbEntity
  8
s003-#def-inactive-grp
  6
CONTINUOUS
 62
   36
420
8342528
370
   20
100
AcDbCircle
 10
9.524999999999968
 20
-112.3545579237072
 40
66.34955792370724
100
AcDbArc
 50
60.00000000000006
 51
89.99999999999997
  0
ARC
  5
47
100
AcDbEntity
  8
s003-#def-inactive-grp
  6
CONTINUOUS
 62
   36
420
8342528
370
   20
100
AcDbCircle
 10
55.04674714425364
 20
-58.55857902055632
 40
3
100
AcDbArc
 50
-120
 51
-30.00000000000007
  0
ARC
  5
48
100
AcDbEntity
  8
s003-#def-inactive-grp
  6
CONTINUOUS
 62
   36
420
8342528
370
   20
100
AcDbCircle
 10
62.84464276687878
 20
-20.00222761005055
 40
15.52500000000001
100
AcDbArc
 50
-30
 51
46.16397226760304
  0
ARC
  5
49
100
AcDbEntity
  8
s003-#def-inactive-grp
  6
CONTINUOUS
 62
   36
420
8342528
370
   20
100
AcDbCircle
 10
75.67500000000001
 20
-6.639684503646951
 40
3.000000000000008
100
AcDbArc
 50
180
 51
-133.836027732397
  0
ARC
  5
4A
100
AcDbEntity
  8
s003-#def-inactive-grp
  6
CONTINUOUS
 62
   36
420
8342528
370
   20
100
AcDbCircle
 10
69.675
 20
37.3375
 40
3
100
AcDbArc
 50
0
 51
73.40385010586171
  0
SPLINE
  5
4B
100
AcDbEntity
  8
s003-#def-inactive-grp
  6
CONTINUOUS
 62
   36
420
8342528
370
   20
100
AcDbSpline
210
0
220
0
230
0
 70
    8
 71
    3
 72
    8
 73
    4
 74
    0
 42
1e-07
 43
1e-07
 40
0
 40
0
 40
0
 40
0
 40
1
 40
1
 40
1
 40
1
 10
70.53187191100541
 20
40.21252530912859
 30
0
 10
9.525
 20
58.395
 30
0
 10
-28.575
 20
55.2825
 30
0
 10
-70.85258350173187
 20
37.23922037837664
 30
0
  0
ARC
  5
4C
100
AcDbEntity
  8
s003-#def-inactive-grp
  6
CONTINUOUS
 62
   36
420
8342528
370
   20
100
AcDbCircle
 10
-69.67499999999998
 20
34.48
 40
3.000000000000004
100
AcDbArc
 50
113.1118803269177
 51
180
  0
ARC
  5
4D
100
AcDbEntity
  8
s003-#def-inactive-grp
  6
CONTINUOUS
 62
   36
420
8342528
370
   20
100
AcDbCircle
 10
-69.675
 20
-29.67
 40
3
100
AcDbArc
 50
180
 51
-90
  0
ARC
  5
4E
100
AcDbEntity
  8
s003-#def-inactive-grp
  6
CONTINUOUS
 62
   36
420
8342528
370
   20
100
AcDbCircle
 10
-66.15000000000001
 20
-35.67000000000001
 40
3.000000000000007
100
AcDbArc
 50
1.3570366640911e-13
 51
90
  0
ARC
  5
4F
100
AcDbEntity
  8
s003-#def-inactive-grp
  6
CONTINUOUS
 62
   36
420
8342528
370
   20
100
AcDbCircle
 10
-60.15000000000001
 20
-48.72000000000001
 40
3
100
AcDbArc
 50
179.9999999999999
 51
-90
  0
ARC
  5
50
100
AcDbEntity
  8
s003-#def-inactive-grp
  6
CONTINUOUS
 62
   36
420
8342528
370
   20
100
AcDbCircle
 10
-47.625
 20
16.1925
 40
1.25
100
AcDbArc
 50
-90
 51
0
  0
ARC
  5
51
100
AcDbEntity
  8
s003-#def-inactive-grp
  6
CONTINUOUS
 62
   36
420
8342528
370
   20
100
AcDbCircle
 10
-47.625
 20
16.1925
 40
1.25
100
AcDbArc
 50
180
 51
-90
  0
ARC
  5
52
100
AcDbEntity
  8
s003-#def-inactive-grp
  6
CONTINUOUS
 62
   36
420
8342528
370
   20
100
AcDbCircle
 10
-47.625
 20
16.1925
 40
1.25
100
AcDbArc
 50
90
 51
180
  0
ARC
  5
53
100
AcDbEntity
  8
s003-#def-inactive-grp
  6
CONTINUOUS
 62
   36
420
8342528
370
   20
100
AcDbCircle
 10
-47.625
 20
16.1925
 40
1.25
100
AcDbArc
 50
0
 51
90
  0
ARC
  5
54
100
AcDbEntity
  8
s003-#def-inactive-grp
  6
CONTINUOUS
 62
   36
420
8342528
370
   20
100
AcDbCircle
 10
-47.625
 20
-21.9075
 40
1.25
100
AcDbArc
 50
-90
 51
0
  0
ARC
  5
55
100
AcDbEntity
  8
s003-#def-inactive-grp
  6
CONTINUOUS
 62
   36
420
8342528
370
   20
100
AcDbCircle
 10
-47.625
 20
-21.9075
 40
1.25
100
AcDbArc
 50
180
 51
-90
  0
ARC
  5
56
100
AcDbEntity
  8
s003-#def-inactive-grp
  6
CONTINUOUS
 62
   36
420
8342528
370
   20
100
AcDbCircle
 10
-47.625
 20
-21.9075
 40
1.25
100
AcDbArc
 50
90
 51
180
  0
ARC
  5
57
100
AcDbEntity
  8
s003-#def-inactive-grp
  6
CONTINUOUS
 62
   36
420
8342528
370
   20
100
AcDbCircle
 10
-47.625
 20
-21.9075
 40
1.25
100
AcDbArc
 50
0
 51
90
  0
ARC
  5
58
100
AcDbEntity
  8
s003-#def-inactive-grp
  6
CONTINUOUS
 62
   36
420
8342528
370
   20
100
AcDbCircle
 10
8.881784197001252e-16
 20
-30.48
 40
1.249999999999997
100
AcDbArc
 50
-90.00000000000017
 51
0
  0
ARC
  5
59
100
AcDbEntity
  8
s003-#def-inactive-grp
  6
CONTINUOUS
 62
   36
420
8342528
370
   20
100
AcDbCircle
 10
-6.169125471845218e-15
 20
-30.48
 40
1.25
100
AcDbArc
 50
180
 51
-89.99999999999983
  0
ARC
  5
5A
100
AcDbEntity
  8
s003-#def-inactive-grp
  6
CONTINUOUS
 62
   36
420
8342528
370
   20
100
AcDbCircle
 10
1.110223024625157e-15
 20
-30.48
 40
1.250000000000004
100
AcDbArc
 50
90.00000000000017
 51
180
  0
ARC
  5
5B
100
AcDbEntity
  8
s003-#def-inactive-grp
  6
CONTINUOUS
 62
   36
420
8342528
370
   20
100
AcDbCircle
 10
-5.86296377205838e-15
 20
-30.48
 40
1.25
100
AcDbArc
 50
0
 51
89.99999999999983
  0
ARC
  5
5C
100
AcDbEntity
  8
s003-#def-inactive-grp
  6
CONTINUOUS
 62
   36
420
8342528
370
   20
100
AcDbCircle
 10
47.625
 20
-21.9075
 40
1.25
100
AcDbArc
 50
-90
 51
0
  0
ARC
  5
5D
100
AcDbEntity
  8
s003-#def-inactive-grp
  6
CONTINUOUS
 62
   36
420
8342528
370
   20
100
AcDbCircle
 10
47.625
 20
-21.9075
 40
1.25
100
AcDbArc
 50
180
 51
-90
  0
ARC
  5
5E
100
AcDbEntity
  8
s003-#def-inactive-grp
  6
CONTINUOUS
 62
   36
420
8342528
370
   20
100
AcDbCircle
 10
47.625
 20
-21.9075
 40
1.25
100
AcDbArc
 50
90
 51
180
  0
ARC
  5
5F
100
AcDbEntity
  8
s003-#def-inactive-grp
  6
CONTINUOUS
 62
   36
420
8342528
370
   20
100
AcDbCircle
 10
47.625
 20
-21.9075
 40
1.25
100
AcDbArc
 50
0
 51
90
  0
ARC
  5
60
100
AcDbEntity
  8
s003-#def-inactive-grp
  6
CONTINUOUS
 62
   36
420
8342528
370
   20
100
AcDbCircle
 10
47.625
 20
16.1925
 40
1.25
100
AcDbArc
 50
-90
 51
0
  0
ARC
  5
61
100
AcDbEntity
  8
s003-#def-inactive-grp
  6
CONTINUOUS
 62
   36
420
8342528
370
   20
100
AcDbCircle
 10
47.625
 20
16.1925
 40
1.25
100
AcDbArc
 50
180
 51
-90
  0
ARC
  5
62
100
AcDbEntity
  8
s003-#def-inactive-grp
  6
CONTINUOUS
 62
   36
420
8342528
370
   20
100
AcDbCircle
 10
47.625
 20
16.1925
 40
1.25
100
AcDbArc
 50
90
 51
180
  0
ARC
  5
63
100
AcDbEntity
  8
s003-#def-inactive-grp
  6
CONTINUOUS
 62
   36
420
8342528
370
   20
100
AcDbCircle
 10
47.625
 20
16.1925
 40
1.25
100
AcDbArc
 50
0
 51
90
  0
ARC
  5
64
100
AcDbEntity
  8
s003-#def-inactive-grp
  6
CONTINUOUS
 62
   36
420
8342528
370
   20
100
AcDbCircle
 10
-69.47499999999999
 20
34.34790351995441
 40
1.25
100
AcDbArc
 50
-90
 51
0
  0
ARC
  5
65
100
AcDbEntity
  8
s003-#def-inactive-grp
  6
CONTINUOUS
 62
   36
420
8342528
370
   20
100
AcDbCircle
 10
-69.47499999999999
 20
34.34790351995441
 40
1.25
100
AcDbArc
 50
180
 51
-90
  0
ARC
  5
66
100
AcDbEntity
  8
s003-#def-inactive-grp
  6
CONTINUOUS
 62
   36
420
8342528
370
   20
100
AcDbCircle
 10
-69.47499999999999
 20
34.34790351995441
 40
1.25
100
AcDbArc
 50
90
 51
180
  0
ARC
  5
67
100
AcDbEntity
  8
s003-#def-inactive-grp
  6
CONTINUOUS
 62
   36
420
8342528
370
   20
100
AcDbCircle
 10
-69.47499999999999
 20
34.34790351995441
 40
1.25
100
AcDbArc
 50
0
 51
90
  0
ARC
  5
68
100
AcDbEntity
  8
s003-#def-inactive-grp
  6
CONTINUOUS
 62
   36
420
8342528
370
   20
100
AcDbCircle
 10
-19.7
 20
48.1375
 40
1.249999999999993
100
AcDbArc
 50
-90.00000000000033
 51
0
  0
ARC
  5
69
100
AcDbEntity
  8
s003-#def-inactive-grp
  6
CONTINUOUS
 62
   36
420
8342528
370
   20
100
AcDbCircle
 10
-19.70000000000001
 20
48.1375
 40
1.25
100
AcDbArc
 50
180
 51
-89.99999999999969
  0
ARC
  5
6A
100
AcDbEntity
  8
s003-#def-inactive-grp
  6
CONTINUOUS
 62
   36
420
8342528
370
   20
100
AcDbCircle
 10
-19.7
 20
48.1375
 40
1.250000000000007
100
AcDbArc
 50
90.00000000000033
 51
180
  0
ARC
  5
6B
100
AcDbEntity
  8
s003-#def-inactive-grp
  6
CONTINUOUS
 62
   36
420
8342528
370
   20
100
AcDbCircle
 10
-19.70000000000001
 20
48.1375
 40
1.25
100
AcDbArc
 50
0
 51
89.99999999999969
  0
ARC
  5
6C
100
AcDbEntity
  8
s003-#def-inactive-grp
  6
CONTINUOUS
 62
   36
420
8342528
370
   20
100
AcDbCircle
 10
38.75
 20
44.975
 40
1.25
100
AcDbArc
 50
-90
 51
0
  0
ARC
  5
6D
100
AcDbEntity
  8
s003-#def-inactive-grp
  6
CONTINUOUS
 62
   36
420
8342528
370
   20
100
AcDbCircle
 10
38.75
 20
44.975
 40
1.25
100
AcDbArc
 50
180
 51
-90
  0
ARC
  5
6E
100
AcDbEntity
  8
s003-#def-inactive-grp
  6
CONTINUOUS
 62
   36
420
8342528
370
   20
100
AcDbCircle
 10
38.75
 20
44.975
 40
1.25
100
AcDbArc
 50
90
 51
180
  0
ARC
  5
6F
100
AcDbEntity
  8
s003-#def-inactive-grp
  6
CONTINUOUS
 62
   36
420
8342528
370
   20
100
AcDbCircle
 10
38.75
 20
44.975
 40
1.25
100
AcDbArc
 50
0
 51
90
  0
ARC
  5
70
100
AcDbEntity
  8
s003-#def-inactive-grp
  6
CONTINUOUS
 62
   36
420
8342528
370
   20
100
AcDbCircle
 10
69.47499999999999
 20
37.18841414102061
 40
1.25
100
AcDbArc
 50
-90
 51
0
  0
ARC
  5
71
100
AcDbEntity
  8
s003-#def-inactive-grp
  6
CONTINUOUS
 62
   36
420
8342528
370
   20
100
AcDbCircle
 10
69.47499999999999
 20
37.18841414102061
 40
1.25
100
AcDbArc
 50
180
 51
-90
  0
ARC
  5
72
100
AcDbEntity
  8
s003-#def-inactive-grp
  6
CONTINUOUS
 62
   36
420
8342528
370
   20
100
AcDbCircle
 10
69.47499999999999
 20
37.18841414102061
 40
1.25
100
AcDbArc
 50
90
 51
180
  0
ARC
  5
73
100
AcDbEntity
  8
s003-#def-inactive-grp
  6
CONTINUOUS
 62
   36
420
8342528
370
   20
100
AcDbCircle
 10
69.47499999999999
 20
37.18841414102061
 40
1.25
100
AcDbArc
 50
0
 51
90
  0
ARC
  5
74
100
AcDbEntity
  8
s003-#def-inactive-grp
  6
CONTINUOUS
 62
   36
420
8342528
370
   20
100
AcDbCircle
 10
70.28907069856993
 20
-9.283879193906557
 40
1.25
100
AcDbArc
 50
-90
 51
0
  0
ARC
  5
75
100
AcDbEntity
  8
s003-#def-inactive-grp
  6
CONTINUOUS
 62
   36
420
8342528
370
   20
100
AcDbCircle
 10
70.28907069856993
 20
-9.283879193906557
 40
1.25
100
AcDbArc
 50
180
 51
-90
  0
ARC
  5
76
100
AcDbEntity
  8
s003-#def-inactive-grp
  6
CONTINUOUS
 62
   36
420
8342528
370
   20
100
AcDbCircle
 10
70.28907069856993
 20
-9.283879193906557
 40
1.25
100
AcDbArc
 50
90
 51
180
  0
ARC
  5
77
100
AcDbEntity
  8
s003-#def-inactive-grp
  6
CONTINUOUS
 62
   36
420
8342528
370
   20
100
AcDbCircle
 10
70.28907069856993
 20
-9.283879193906557
 40
1.25
100
AcDbArc
 50
0
 51
90
  0
ARC
  5
78
100
AcDbEntity
  8
s003-#def-inactive-grp
  6
CONTINUOUS
 62
   36
420
8342528
370
   20
100
AcDbCircle
 10
71.08648918614985
 20
-30.37693086369345
 40
1.25
100
AcDbArc
 50
-90
 51
0
  0
ARC
  5
79
100
AcDbEntity
  8
s003-#def-inactive-grp
  6
CONTINUOUS
 62
   36
420
8342528
370
   20
100
AcDbCircle
 10
71.08648918614985
 20
-30.37693086369345
 40
1.25
100
AcDbArc
 50
180
 51
-90
  0
ARC
  5
7A
100
AcDbEntity
  8
s003-#def-inactive-grp
  6
CONTINUOUS
 62
   36
420
8342528
370
   20
100
AcDbCircle
 10
71.08648918614985
 20
-30.37693086369345
 40
1.25
100
AcDbArc
 50
90
 51
180
  0
ARC
  5
7B
100
AcDbEntity
  8
s003-#def-inactive-grp
  6
CONTINUOUS
 62
   36
420
8342528
370
   20
100
AcDbCircle
 10
71.08648918614985
 20
-30.37693086369345
 40
1.25
100
AcDbArc
 50
0
 51
90
  0
ARC
  5
7C
100
AcDbEntity
  8
s003-#def-inactive-grp
  6
CONTINUOUS
 62
   36
420
8342528
370
   20
100
AcDbCircle
 10
54.97354206349674
 20
-58.28537393979943
 40
1.25
100
AcDbArc
 50
-90
 51
-3.256887993818642e-13
  0
ARC
  5
7D
100
AcDbEntity
  8
s003-#def-inactive-grp
  6
CONTINUOUS
 62
   36
420
8342528
370
   20
100
AcDbCircle
 10
54.97354206349674
 20
-58.28537393979944
 40
1.249999999999993
100
AcDbArc
 50
179.9999999999997
 51
-90
  0
ARC
  5
7E
100
AcDbEntity
  8
s003-#def-inactive-grp
  6
CONTINUOUS
 62
   36
420
8342528
370
   20
100
AcDbCircle
 10
54.97354206349674
 20
-58.28537393979943
 40
1.25
100
AcDbArc
 50
90
 51
-179.9999999999997
  0
ARC
  5
7F
100
AcDbEntity
  8
s003-#def-inactive-grp
  6
CONTINUOUS
 62
   36
420
8342528
370
   20
100
AcDbCircle
 10
54.97354206349674
 20
-58.28537393979944
 40
1.250000000000007
100
AcDbArc
 50
3.256887993818642e-13
 51
90
  0
ARC
  5
80
100
AcDbEntity
  8
s003-#def-inactive-grp
  6
CONTINUOUS
 62
   36
420
8342528
370
   20
100
AcDbCircle
 10
-7.775000000000003
 20
-43.73
 40
1.25
100
AcDbArc
 50
-90
 51
0
  0
ARC
  5
81
100
AcDbEntity
  8
s003-#def-inactive-grp
  6
CONTINUOUS
 62
   36
420
8342528
370
   20
100
AcDbCircle
 10
-7.775000000000003
 20
-43.73
 40
1.25
100
AcDbArc
 50
180
 51
-90
  0
ARC
  5
82
100
AcDbEntity
  8
s003-#def-inactive-grp
  6
CONTINUOUS
 62
   36
420
8342528
370
   20
100
AcDbCircle
 10
-7.775000000000003
 20
-43.73
 40
1.249999999999999
100
AcDbArc
 50
90
 51
180
  0
ARC
  5
83
100
AcDbEntity
  8
s003-#def-inactive-grp
  6
CONTINUOUS
 62
   36
420
8342528
370
   20
100
AcDbCircle
 10
-7.775000000000003
 20
-43.73
 40
1.25
100
AcDbArc
 50
0
 51
90
  0
ARC
  5
84
100
AcDbEntity
  8
s003-#def-inactive-grp
  6
CONTINUOUS
 62
   36
420
8342528
370
   20
100
AcDbCircle
 10
-59.95
 20
-48.52
 40
1.25
100
AcDbArc
 50
-90
 51
0
  0
ARC
  5
85
100
AcDbEntity
  8
s003-#def-inactive-grp
  6
CONTINUOUS
 62
   36
420
8342528
370
   20
100
AcDbCircle
 10
-59.95
 20
-48.52
 40
1.25
100
AcDbArc
 50
180
 51
-90
  0
ARC
  5
86
100
AcDbEntity
  8
s003-#def-inactive-grp
  6
CONTINUOUS
 62
   36
420
8342528
370
   20
100
AcDbCircle
 10
-59.95
 20
-48.52
 40
1.25
100
AcDbArc
 50
90
 51
180
  0
ARC
  5
87
100
AcDbEntity
  8
s003-#def-inactive-grp
  6
CONTINUOUS
 62
   36
420
8342528
370
   20
100
AcDbCircle
 10
-59.95
 20
-48.52
 40
1.25
100
AcDbArc
 50
0
 51
90
  0
ARC
  5
88
100
AcDbEntity
  8
s003-#def-inactive-grp
  6
CONTINUOUS
 62
   36
420
8342528
370
   20
100
AcDbCircle
 10
-69.47499999999999
 20
-29.47
 40
1.25
100
AcDbArc
 50
-90
 51
0
  0
ARC
  5
89
100
AcDbEntity
  8
s003-#def-inactive-grp
  6
CONTINUOUS
 62
   36
420
8342528
370
   20
100
AcDbCircle
 10
-69.47499999999999
 20
-29.47
 40
1.25
100
AcDbArc
 50
180
 51
-90
  0
ARC
  5
8A
100
AcDbEntity
  8
s003-#def-inactive-grp
  6
CONTINUOUS
 62
   36
420
8342528
370
   20
100
AcDbCircle
 10
-69.47499999999999
 20
-29.47
 40
1.25
100
AcDbArc
 50
90
 51
180
  0
ARC
  5
8B
100
AcDbEntity
  8
s003-#def-inactive-grp
  6
CONTINUOUS
 62
   36
420
8342528
370
   20
100
AcDbCircle
 10
-69.47499999999999
 20
-29.47
 40
1.25
100
AcDbArc
 50
0
 51
90
  0
ENDSEC
  0
SECTION
  2
OBJECTS
  0
DICTIONARY
  5
C
330
0
100
AcDbDictionary
281
    1
  3
ACAD_GROUP
350
D
  0
DICTIONARY
  5
D
330
C
100
AcDbDictionary
281
    1
  0
ENDSEC
  0
EOF
