<?xml version="1.0" encoding="UTF-8" standalone="no"?>
<svg
   width="790mm"
   height="384mm"
   viewBox="0 0 790.00001 383.99999"
   version="1.1"
   id="svg6889"
   sodipodi:docname="v13-02-body-cutout-x2.svg"
   inkscape:version="1.1 (c68e22c387, 2021-05-23)"
   xmlns:inkscape="http://www.inkscape.org/namespaces/inkscape"
   xmlns:sodipodi="http://sodipodi.sourceforge.net/DTD/sodipodi-0.dtd"
   xmlns="http://www.w3.org/2000/svg"
   xmlns:svg="http://www.w3.org/2000/svg"
   xmlns:rdf="http://www.w3.org/1999/02/22-rdf-syntax-ns#"
   xmlns:cc="http://creativecommons.org/ns#"
   xmlns:dc="http://purl.org/dc/elements/1.1/">
  <defs
     id="defs6893" />
  <sodipodi:namedview
     id="namedview6891"
     pagecolor="#ffffff"
     bordercolor="#666666"
     borderopacity="1.0"
     inkscape:pageshadow="2"
     inkscape:pageopacity="0.0"
     inkscape:pagecheckerboard="0"
     inkscape:document-units="mm"
     showgrid="false"
     inkscape:zoom="1"
     inkscape:cx="236.5"
     inkscape:cy="325.5"
     inkscape:window-width="2560"
     inkscape:window-height="1377"
     inkscape:window-x="-8"
     inkscape:window-y="-8"
     inkscape:window-maximized="1"
     inkscape:current-layer="svg6889"
     width="790mm" />
  <title
     id="title6861">Exported SVG</title>
  <style
     id="style6863"><![CDATA[
polygon {
shape-rendering:crispEdges;
stroke-width:0.165047;
}
.s0 {
stroke:#000000;
stroke-width:0.084366;
stroke-linecap:round;
stroke-linejoin:round;
fill:none;
}
.s1 {
stroke:#000000;
stroke-width:0.084366;
stroke-linecap:round;
stroke-linejoin:round;
fill:none;
}
.s2 {
stroke:#19b219;
stroke-width:0.084366;
stroke-linecap:round;
stroke-linejoin:round;
fill:none;
}
.s3 {
stroke:#7f4c00;
stroke-width:0.084366;
stroke-linecap:round;
stroke-linejoin:round;
fill:none;
}
.s4 {
stroke:#00cc00;
stroke-width:0.084366;
stroke-linecap:round;
stroke-linejoin:round;
fill:none;
}
.s5 {
stroke:#000000;
stroke-width:0.056244;
stroke-linecap:round;
stroke-linejoin:round;
fill:none;
}
.s6 {
stroke:#ff19ff;
stroke-width:0.056244;
stroke-linecap:round;
stroke-linejoin:round;
fill:none;
}
.s7 {
stroke:#ff0000;
stroke-width:0.084366;
stroke-linecap:round;
stroke-linejoin:round;
fill:none;
}
.s8 {
stroke:#ffff00;
stroke-width:0.084366;
stroke-linecap:round;
stroke-linejoin:round;
fill:none;
}
.s9 {
stroke:#001919;
stroke-width:0.056244;
stroke-linecap:round;
stroke-linejoin:round;
fill:none;
}
.sa {
stroke:#006666;
stroke-width:0.056244;
stroke-linecap:round;
stroke-linejoin:round;
fill:none;
}
.sb {
stroke:#00ffff;
stroke-width:0.168732;
stroke-linecap:round;
stroke-linejoin:round;
fill:none;
}
.sc {
stroke:#ff0000;
stroke-width:0.449953;
stroke-linecap:round;
stroke-linejoin:round;
fill:none;
}
.sd {
stroke:#191919;
stroke-width:0.056244;
stroke-linecap:round;
stroke-linejoin:round;
fill:none;
}
.se {
stroke:#000000;
stroke-width:0.056244;
stroke-linecap:round;
stroke-linejoin:round;
fill:none;
}
.sf {
stroke:#000000;
stroke-width:0.168732;
stroke-linecap:round;
stroke-linejoin:round;
fill:none;
}
]]></style>
  <g
     id="g30-1-0"
     transform="rotate(180,78.54097,63.115191)">
    <path
       id="path6865-2-3"
       class="s3"
       d="M 255.58984,42.367188 C 175.12542,46.516387 102.25927,66.217891 25.783203,98.857422 a 11.338583,11.338583 0 0 0 -6.884765,10.427738 v 242.45703 a 11.338583,11.338583 0 0 0 11.33789,11.33789 h 13.322266 a 11.338583,11.338583 0 0 1 11.339844,11.33789 v 49.32422 a 11.338583,11.338583 0 0 0 11.33789,11.33789 h 11.337891 c 144.000001,0 144.000001,-21.59961 252.000001,-21.59961 a 250.77165,250.77165 0 0 1 125.38672,33.5957 l 40.99609,23.67188 a 11.338583,11.338583 0 0 0 15.48828,-4.15039 l 70.46875,-122.05664 a 58.677165,58.677165 0 0 0 -10.17773,-71.66211 11.338583,11.338583 0 0 1 -3.48438,-8.17969 V 98.482422 A 11.338583,11.338583 0 0 0 560.15234,87.617188 C 512.33203,73.365233 468.2447,62.586084 426.95898,55.042969 v 26.423828 l 120.59961,30.150393 v 171.67383 a 35.905512,35.905512 0 0 1 18.65235,39.4121 35.905512,35.905512 0 0 1 -33.12696,28.35157 v 36.67969 L 498.20312,448.15039 465.30469,429.1582 A 271.46457,271.46457 0 0 0 329.57422,392.78711 h -65.38477 l -40.63086,10.79883 -72,10.80078 H 75.589844 v -72 h -36 V 122.41797 L 183.58984,75.621094 h 35.52735 l 36.47265,-18.001953 z"
       transform="scale(0.26458333)"
       style="font-variation-settings:normal;opacity:1;vector-effect:none;fill:none;fill-opacity:1;stroke:#7f4c00;stroke-width:0.318864;stroke-linecap:round;stroke-linejoin:round;stroke-miterlimit:4;stroke-dasharray:none;stroke-dashoffset:0;stroke-opacity:1;-inkscape-stroke:none;stop-color:#000000;stop-opacity:1" />
    <path
       d="m 59.675,15.258 a 1.7,1.7 0 0 1 -1.7,1.7 1.7,1.7 0 0 1 -1.7,-1.7 1.7,1.7 0 0 1 1.7,-1.701 1.7,1.7 0 0 1 1.7,1.701"
       class="s3"
       id="path6869-3-7" />
    <path
       d="m 118.125,18.42 a 1.7,1.7 0 0 1 -1.7,1.7 1.7,1.7 0 0 1 -1.7,-1.7 1.7,1.7 0 0 1 1.7,-1.7 1.7,1.7 0 0 1 1.7,1.7"
       class="s3"
       id="path6871-6-8" />
    <path
       d="m 148.85,26.207 a 1.7,1.7 0 0 1 -1.7,1.7 1.7,1.7 0 0 1 -1.7,-1.7 1.7,1.7 0 0 1 1.7,-1.7 1.7,1.7 0 0 1 1.7,1.7"
       class="s3"
       id="path6873-1-6" />
    <path
       d="m 149.664,72.679 a 1.7,1.7 0 0 1 -1.7,1.7 1.7,1.7 0 0 1 -1.7,-1.7 1.7,1.7 0 0 1 1.7,-1.7 1.7,1.7 0 0 1 1.7,1.7"
       class="s3"
       id="path6875-1-3" />
    <path
       d="m 150.461,93.772 a 1.7,1.7 0 0 1 -1.7,1.7 1.7,1.7 0 0 1 -1.7,-1.7 1.7,1.7 0 0 1 1.7,-1.7 1.7,1.7 0 0 1 1.7,1.7"
       class="s3"
       id="path6877-4-7" />
    <path
       d="m 134.349,121.68 a 1.7,1.7 0 0 1 -1.7,1.7 1.7,1.7 0 0 1 -1.7,-1.7 1.7,1.7 0 0 1 1.7,-1.7 1.7,1.7 0 0 1 1.7,1.7"
       class="s3"
       id="path6879-1-4" />
    <path
       d="m 71.6,107.125 a 1.7,1.7 0 0 1 -1.7,1.7 1.7,1.7 0 0 1 -1.7,-1.7 1.7,1.7 0 0 1 1.7,-1.7 1.7,1.7 0 0 1 1.7,1.7"
       class="s3"
       id="path6881-4-2" />
    <path
       d="m 19.425,111.915 a 1.7,1.7 0 0 1 -1.7,1.7 1.7,1.7 0 0 1 -1.7,-1.7 1.7,1.7 0 0 1 1.7,-1.7 1.7,1.7 0 0 1 1.7,1.7"
       class="s3"
       id="path6883-4-0" />
    <path
       d="m 9.9,92.865 a 1.7,1.7 0 0 1 -1.7,1.7 1.7,1.7 0 0 1 -1.7,-1.7 1.7,1.7 0 0 1 1.7,-1.7 1.7,1.7 0 0 1 1.7,1.7"
       class="s3"
       id="path6885-2-8" />
    <path
       d="m 9.9,29.047 a 1.7,1.7 0 0 1 -1.7,1.7 1.7,1.7 0 0 1 -1.7,-1.7 1.7,1.7 0 0 1 1.7,-1.7 1.7,1.7 0 0 1 1.7,1.7"
       class="s3"
       id="path6887-3-9" />
  </g>
  <g
     id="g30-1-0-9"
     transform="translate(40.392108,9.970136)">
    <path
       id="path6865-2-3-0"
       class="s3"
       d="M 255.58984,42.367188 C 175.12542,46.516387 102.25927,66.217891 25.783203,98.857422 a 11.338583,11.338583 0 0 0 -6.884765,10.427738 v 242.45703 a 11.338583,11.338583 0 0 0 11.33789,11.33789 h 13.322266 a 11.338583,11.338583 0 0 1 11.339844,11.33789 v 49.32422 a 11.338583,11.338583 0 0 0 11.33789,11.33789 h 11.337891 c 144.000001,0 144.000001,-21.59961 252.000001,-21.59961 a 250.77165,250.77165 0 0 1 125.38672,33.5957 l 40.99609,23.67188 a 11.338583,11.338583 0 0 0 15.48828,-4.15039 l 70.46875,-122.05664 a 58.677165,58.677165 0 0 0 -10.17773,-71.66211 11.338583,11.338583 0 0 1 -3.48438,-8.17969 V 98.482422 A 11.338583,11.338583 0 0 0 560.15234,87.617188 C 512.33203,73.365233 468.2447,62.586084 426.95898,55.042969 v 26.423828 l 120.59961,30.150393 v 171.67383 a 35.905512,35.905512 0 0 1 18.65235,39.4121 35.905512,35.905512 0 0 1 -33.12696,28.35157 v 36.67969 L 498.20312,448.15039 465.30469,429.1582 A 271.46457,271.46457 0 0 0 329.57422,392.78711 h -65.38477 l -40.63086,10.79883 -72,10.80078 H 75.589844 v -72 h -36 V 122.41797 L 183.58984,75.621094 h 35.52735 l 36.47265,-18.001953 z"
       transform="scale(0.26458333)"
       style="font-variation-settings:normal;opacity:1;vector-effect:none;fill:none;fill-opacity:1;stroke:#7f4c00;stroke-width:0.318864;stroke-linecap:round;stroke-linejoin:round;stroke-miterlimit:4;stroke-dasharray:none;stroke-dashoffset:0;stroke-opacity:1;-inkscape-stroke:none;stop-color:#000000;stop-opacity:1" />
    <path
       d="m 59.675,15.258 a 1.7,1.7 0 0 1 -1.7,1.7 1.7,1.7 0 0 1 -1.7,-1.7 1.7,1.7 0 0 1 1.7,-1.701 1.7,1.7 0 0 1 1.7,1.701"
       class="s3"
       id="path6869-3-7-3" />
    <path
       d="m 118.125,18.42 a 1.7,1.7 0 0 1 -1.7,1.7 1.7,1.7 0 0 1 -1.7,-1.7 1.7,1.7 0 0 1 1.7,-1.7 1.7,1.7 0 0 1 1.7,1.7"
       class="s3"
       id="path6871-6-8-3" />
    <path
       d="m 148.85,26.207 a 1.7,1.7 0 0 1 -1.7,1.7 1.7,1.7 0 0 1 -1.7,-1.7 1.7,1.7 0 0 1 1.7,-1.7 1.7,1.7 0 0 1 1.7,1.7"
       class="s3"
       id="path6873-1-6-5" />
    <path
       d="m 149.664,72.679 a 1.7,1.7 0 0 1 -1.7,1.7 1.7,1.7 0 0 1 -1.7,-1.7 1.7,1.7 0 0 1 1.7,-1.7 1.7,1.7 0 0 1 1.7,1.7"
       class="s3"
       id="path6875-1-3-3" />
    <path
       d="m 150.461,93.772 a 1.7,1.7 0 0 1 -1.7,1.7 1.7,1.7 0 0 1 -1.7,-1.7 1.7,1.7 0 0 1 1.7,-1.7 1.7,1.7 0 0 1 1.7,1.7"
       class="s3"
       id="path6877-4-7-5" />
    <path
       d="m 134.349,121.68 a 1.7,1.7 0 0 1 -1.7,1.7 1.7,1.7 0 0 1 -1.7,-1.7 1.7,1.7 0 0 1 1.7,-1.7 1.7,1.7 0 0 1 1.7,1.7"
       class="s3"
       id="path6879-1-4-6" />
    <path
       d="m 71.6,107.125 a 1.7,1.7 0 0 1 -1.7,1.7 1.7,1.7 0 0 1 -1.7,-1.7 1.7,1.7 0 0 1 1.7,-1.7 1.7,1.7 0 0 1 1.7,1.7"
       class="s3"
       id="path6881-4-2-5" />
    <path
       d="m 19.425,111.915 a 1.7,1.7 0 0 1 -1.7,1.7 1.7,1.7 0 0 1 -1.7,-1.7 1.7,1.7 0 0 1 1.7,-1.7 1.7,1.7 0 0 1 1.7,1.7"
       class="s3"
       id="path6883-4-0-7" />
    <path
       d="m 9.9,92.865 a 1.7,1.7 0 0 1 -1.7,1.7 1.7,1.7 0 0 1 -1.7,-1.7 1.7,1.7 0 0 1 1.7,-1.7 1.7,1.7 0 0 1 1.7,1.7"
       class="s3"
       id="path6885-2-8-9" />
    <path
       d="m 9.9,29.047 a 1.7,1.7 0 0 1 -1.7,1.7 1.7,1.7 0 0 1 -1.7,-1.7 1.7,1.7 0 0 1 1.7,-1.7 1.7,1.7 0 0 1 1.7,1.7"
       class="s3"
       id="path6887-3-9-9" />
  </g>
  <metadata
     id="metadata7452">
    <rdf:RDF>
      <cc:Work
         rdf:about="">
        <dc:title>Exported SVG</dc:title>
      </cc:Work>
    </rdf:RDF>
  </metadata>
</svg>
