<?xml version="1.0" encoding="UTF-8" standalone="no"?>
<svg
   width="165.047mm"
   height="131.052mm"
   viewBox="0 0 165.047 131.052"
   version="1.1"
   id="svg6889"
   sodipodi:docname="02-body-cutout.svg"
   inkscape:version="1.1 (c68e22c387, 2021-05-23)"
   xmlns:inkscape="http://www.inkscape.org/namespaces/inkscape"
   xmlns:sodipodi="http://sodipodi.sourceforge.net/DTD/sodipodi-0.dtd"
   xmlns="http://www.w3.org/2000/svg"
   xmlns:svg="http://www.w3.org/2000/svg"
   xmlns:rdf="http://www.w3.org/1999/02/22-rdf-syntax-ns#"
   xmlns:cc="http://creativecommons.org/ns#"
   xmlns:dc="http://purl.org/dc/elements/1.1/">
  <defs
     id="defs6893" />
  <sodipodi:namedview
     id="namedview6891"
     pagecolor="#ffffff"
     bordercolor="#666666"
     borderopacity="1.0"
     inkscape:pageshadow="2"
     inkscape:pageopacity="0.0"
     inkscape:pagecheckerboard="0"
     inkscape:document-units="mm"
     showgrid="false"
     inkscape:zoom="2.3985873"
     inkscape:cx="371.67712"
     inkscape:cy="236.5976"
     inkscape:window-width="2560"
     inkscape:window-height="1377"
     inkscape:window-x="-8"
     inkscape:window-y="-8"
     inkscape:window-maximized="1"
     inkscape:current-layer="svg6889" />
  <title
     id="title6861">Exported SVG</title>
  <style
     id="style6863"><![CDATA[
polygon {
shape-rendering:crispEdges;
stroke-width:0.165047;
}
.s0 {
stroke:#000000;
stroke-width:0.084366;
stroke-linecap:round;
stroke-linejoin:round;
fill:none;
}
.s1 {
stroke:#000000;
stroke-width:0.084366;
stroke-linecap:round;
stroke-linejoin:round;
fill:none;
}
.s2 {
stroke:#19b219;
stroke-width:0.084366;
stroke-linecap:round;
stroke-linejoin:round;
fill:none;
}
.s3 {
stroke:#7f4c00;
stroke-width:0.084366;
stroke-linecap:round;
stroke-linejoin:round;
fill:none;
}
.s4 {
stroke:#00cc00;
stroke-width:0.084366;
stroke-linecap:round;
stroke-linejoin:round;
fill:none;
}
.s5 {
stroke:#000000;
stroke-width:0.056244;
stroke-linecap:round;
stroke-linejoin:round;
fill:none;
}
.s6 {
stroke:#ff19ff;
stroke-width:0.056244;
stroke-linecap:round;
stroke-linejoin:round;
fill:none;
}
.s7 {
stroke:#ff0000;
stroke-width:0.084366;
stroke-linecap:round;
stroke-linejoin:round;
fill:none;
}
.s8 {
stroke:#ffff00;
stroke-width:0.084366;
stroke-linecap:round;
stroke-linejoin:round;
fill:none;
}
.s9 {
stroke:#001919;
stroke-width:0.056244;
stroke-linecap:round;
stroke-linejoin:round;
fill:none;
}
.sa {
stroke:#006666;
stroke-width:0.056244;
stroke-linecap:round;
stroke-linejoin:round;
fill:none;
}
.sb {
stroke:#00ffff;
stroke-width:0.168732;
stroke-linecap:round;
stroke-linejoin:round;
fill:none;
}
.sc {
stroke:#ff0000;
stroke-width:0.449953;
stroke-linecap:round;
stroke-linejoin:round;
fill:none;
}
.sd {
stroke:#191919;
stroke-width:0.056244;
stroke-linecap:round;
stroke-linejoin:round;
fill:none;
}
.se {
stroke:#000000;
stroke-width:0.056244;
stroke-linecap:round;
stroke-linejoin:round;
fill:none;
}
.sf {
stroke:#000000;
stroke-width:0.168732;
stroke-linecap:round;
stroke-linejoin:round;
fill:none;
}
]]></style>
  <path
     id="path6865"
     class="s3"
     d="M 255.58984 42.367188 C 175.12542 46.516387 102.25927 66.217891 25.783203 98.857422 A 11.338583 11.338583 0 0 0 18.898438 109.28516 L 18.898438 351.74219 A 11.338583 11.338583 0 0 0 30.236328 363.08008 L 43.558594 363.08008 A 11.338583 11.338583 0 0 1 54.898438 374.41797 L 54.898438 423.74219 A 11.338583 11.338583 0 0 0 66.236328 435.08008 L 77.574219 435.08008 C 221.57422 435.08008 221.57422 413.48047 329.57422 413.48047 A 250.77165 250.77165 0 0 1 454.96094 447.07617 L 495.95703 470.74805 A 11.338583 11.338583 0 0 0 511.44531 466.59766 L 581.91406 344.54102 A 58.677165 58.677165 0 0 0 571.73633 272.87891 A 11.338583 11.338583 0 0 1 568.25195 264.69922 L 568.25195 98.482422 A 11.338583 11.338583 0 0 0 560.15234 87.617188 C 512.33203 73.365233 468.2447 62.586084 426.95898 55.042969 L 426.95898 81.466797 L 547.55859 111.61719 L 547.55859 283.29102 A 35.905512 35.905512 0 0 1 566.21094 322.70312 A 35.905512 35.905512 0 0 1 533.08398 351.05469 L 533.08398 387.73438 L 498.20312 448.15039 L 465.30469 429.1582 A 271.46457 271.46457 0 0 0 329.57422 392.78711 L 264.18945 392.78711 L 223.55859 403.58594 L 151.55859 414.38672 L 75.589844 414.38672 L 75.589844 342.38672 L 39.589844 342.38672 L 39.589844 122.41797 L 183.58984 75.621094 L 219.11719 75.621094 L 255.58984 57.619141 L 255.58984 42.367188 z "
     transform="scale(0.26458333)"
     style="font-variation-settings:normal;opacity:1;vector-effect:none;fill:none;fill-opacity:1;stroke:#7f4c00;stroke-width:0.31886362;stroke-linecap:round;stroke-linejoin:round;stroke-miterlimit:4;stroke-dasharray:none;stroke-dashoffset:0;stroke-opacity:1;-inkscape-stroke:none;stop-color:#000000;stop-opacity:1" />
  <path
     d="M59.675 15.258 A1.700,1.700 0 0,1 57.975,16.958 A1.700,1.700 0 0,1 56.275,15.258 A1.700,1.700 0 0,1 57.975,13.557 A1.700,1.700 0 0,1 59.675,15.258 "
     class="s3"
     id="path6869" />
  <path
     d="M118.125 18.420 A1.700,1.700 0 0,1 116.425,20.120 A1.700,1.700 0 0,1 114.725,18.420 A1.700,1.700 0 0,1 116.425,16.720 A1.700,1.700 0 0,1 118.125,18.420 "
     class="s3"
     id="path6871" />
  <path
     d="M148.850 26.207 A1.700,1.700 0 0,1 147.150,27.907 A1.700,1.700 0 0,1 145.450,26.207 A1.700,1.700 0 0,1 147.150,24.507 A1.700,1.700 0 0,1 148.850,26.207 "
     class="s3"
     id="path6873" />
  <path
     d="M149.664 72.679 A1.700,1.700 0 0,1 147.964,74.379 A1.700,1.700 0 0,1 146.264,72.679 A1.700,1.700 0 0,1 147.964,70.979 A1.700,1.700 0 0,1 149.664,72.679 "
     class="s3"
     id="path6875" />
  <path
     d="M150.461 93.772 A1.700,1.700 0 0,1 148.761,95.472 A1.700,1.700 0 0,1 147.061,93.772 A1.700,1.700 0 0,1 148.761,92.072 A1.700,1.700 0 0,1 150.461,93.772 "
     class="s3"
     id="path6877" />
  <path
     d="M134.349 121.680 A1.700,1.700 0 0,1 132.649,123.380 A1.700,1.700 0 0,1 130.949,121.680 A1.700,1.700 0 0,1 132.649,119.980 A1.700,1.700 0 0,1 134.349,121.680 "
     class="s3"
     id="path6879" />
  <path
     d="M71.600 107.125 A1.700,1.700 0 0,1 69.900,108.825 A1.700,1.700 0 0,1 68.200,107.125 A1.700,1.700 0 0,1 69.900,105.425 A1.700,1.700 0 0,1 71.600,107.125 "
     class="s3"
     id="path6881" />
  <path
     d="M19.425 111.915 A1.700,1.700 0 0,1 17.725,113.615 A1.700,1.700 0 0,1 16.025,111.915 A1.700,1.700 0 0,1 17.725,110.215 A1.700,1.700 0 0,1 19.425,111.915 "
     class="s3"
     id="path6883" />
  <path
     d="M9.900 92.865 A1.700,1.700 0 0,1 8.200,94.565 A1.700,1.700 0 0,1 6.500,92.865 A1.700,1.700 0 0,1 8.200,91.165 A1.700,1.700 0 0,1 9.900,92.865 "
     class="s3"
     id="path6885" />
  <path
     d="M9.900 29.047 A1.700,1.700 0 0,1 8.200,30.747 A1.700,1.700 0 0,1 6.500,29.047 A1.700,1.700 0 0,1 8.200,27.347 A1.700,1.700 0 0,1 9.900,29.047 "
     class="s3"
     id="path6887" />
  <metadata
     id="metadata7452">
    <rdf:RDF>
      <cc:Work
         rdf:about="">
        <dc:title>Exported SVG</dc:title>
      </cc:Work>
    </rdf:RDF>
  </metadata>
</svg>
