<?xml version="1.0" encoding="UTF-8" standalone="no"?>
<!-- Created with Inkscape (http://www.inkscape.org/) -->

<svg
   width="20.0mm"
   height="7.0mm"
   viewBox="0 0 20.0 7.0"
   version="1.1"
   id="svg5"
   inkscape:version="1.1 (c68e22c387, 2021-05-23)"
   sodipodi:docname="drawing.svg"
   xmlns:inkscape="http://www.inkscape.org/namespaces/inkscape"
   xmlns:sodipodi="http://sodipodi.sourceforge.net/DTD/sodipodi-0.dtd"
   xmlns="http://www.w3.org/2000/svg"
   xmlns:svg="http://www.w3.org/2000/svg">
  <sodipodi:namedview
     id="namedview7"
     pagecolor="#ffffff"
     bordercolor="#666666"
     borderopacity="1.0"
     inkscape:pageshadow="2"
     inkscape:pageopacity="0.0"
     inkscape:pagecheckerboard="0"
     inkscape:document-units="mm"
     showgrid="false"
     inkscape:zoom="16"
     inkscape:cx="50.125"
     inkscape:cy="16.84375"
     inkscape:window-width="2560"
     inkscape:window-height="1377"
     inkscape:window-x="-8"
     inkscape:window-y="-8"
     inkscape:window-maximized="1"
     inkscape:current-layer="g1492"
     width="20mm"
     height="19mm" />
  <defs
     id="defs2" />
  <g
     inkscape:label="[fixed] BG"
     inkscape:groupmode="layer"
     sodipodi:insensitive="true"
     id="g1490"
     style="display:inline">
    <rect
       x="0"
       y="0"
       width="20"
       height="7"
       style="fill:#ffffff;fill-opacity:1;stroke:none"
       id="rect1488" />
  </g>
  <g
     inkscape:groupmode="layer"
     id="layer1"
     inkscape:label="Text"
     style="display:none">
    <text
       xml:space="preserve"
       style="font-style:normal;font-variant:normal;font-weight:bold;font-stretch:normal;font-size:6.13971px;line-height:1.25;font-family:Quattrocento;-inkscape-font-specification:'Quattrocento, Bold';font-variant-ligatures:normal;font-variant-caps:normal;font-variant-numeric:normal;font-variant-east-asian:normal;fill:#000000;fill-opacity:1;stroke:none;stroke-width:0.153494"
       x="-0.15664972"
       y="4.3332968"
       id="text957"><tspan
         sodipodi:role="line"
         style="font-style:normal;font-variant:normal;font-weight:bold;font-stretch:normal;font-size:6.13971px;font-family:Quattrocento;-inkscape-font-specification:'Quattrocento, Bold';font-variant-ligatures:normal;font-variant-caps:normal;font-variant-numeric:normal;font-variant-east-asian:normal;stroke-width:0.153494"
         x="-0.15664972"
         y="4.3332968"
         id="tspan10138">Sigmar</tspan></text>
    <text
       xml:space="preserve"
       style="font-style:normal;font-variant:normal;font-weight:normal;font-stretch:normal;font-size:2.86521px;line-height:1.25;font-family:Quattrocento;-inkscape-font-specification:'Quattrocento, Normal';font-variant-ligatures:normal;font-variant-caps:normal;font-variant-numeric:normal;font-variant-east-asian:normal;fill:#000000;fill-opacity:1;stroke:none;stroke-width:0.153494"
       x="0.13478361"
       y="6.7493615"
       id="text2041"><tspan
         sodipodi:role="line"
         id="tspan2039"
         style="font-style:normal;font-variant:normal;font-weight:normal;font-stretch:normal;font-size:2.86521px;font-family:Quattrocento;-inkscape-font-specification:'Quattrocento, Normal';font-variant-ligatures:normal;font-variant-caps:normal;font-variant-numeric:normal;font-variant-east-asian:normal;stroke-width:0.153494"
         x="0.13478361"
         y="6.7493615">v1.3</tspan></text>
    <text
       xml:space="preserve"
       style="font-style:normal;font-variant:normal;font-weight:normal;font-stretch:normal;font-size:2.93859px;line-height:1.25;font-family:Symbola;-inkscape-font-specification:'Symbola, Normal';font-variant-ligatures:normal;font-variant-caps:normal;font-variant-numeric:normal;font-variant-east-asian:normal;fill:#000000;fill-opacity:1;stroke:none;stroke-width:0.10018"
       x="8.010355"
       y="6.7163086"
       id="text12821-7"><tspan
         sodipodi:role="line"
         style="font-style:normal;font-variant:normal;font-weight:normal;font-stretch:normal;font-size:2.93859px;font-family:Symbola;-inkscape-font-specification:'Symbola, Normal';font-variant-ligatures:normal;font-variant-caps:normal;font-variant-numeric:normal;font-variant-east-asian:normal;stroke-width:0.10018"
         x="8.010355"
         y="6.7163086"
         id="tspan18570">游래游랛游랪游랙游랚</tspan></text>
  </g>
  <g
     inkscape:label="F.SilkS"
     inkscape:groupmode="layer"
     id="g1492"
     style="display:inline">
    <g
       aria-label="Sigmar"
       id="text957-4"
       style="font-weight:bold;font-size:6.13971px;line-height:1.25;font-family:Quattrocento;-inkscape-font-specification:'Quattrocento, Bold';stroke-width:0.153494">
      <path
         d="m 0.83798329,1.2450227 q 0,0.1596324 0.0859559,0.2701472 0.085956,0.1105148 0.23330897,0.1964707 0.147353,0.079816 0.3438238,0.1534928 0.1964707,0.073677 0.4175002,0.1534927 0.2210296,0.085956 0.42364,0.1841913 0.2026105,0.092096 0.3561032,0.233309 0.1596325,0.1350736 0.2517281,0.3254046 0.098235,0.1841913 0.098235,0.4481989 0,0.2701472 -0.1043751,0.4911768 Q 2.8395287,3.9157965 2.643058,4.075429 2.452727,4.2289217 2.1703003,4.3148776 q -0.2762869,0.085956 -0.6201107,0.085956 -0.3683826,0 -0.73676515,-0.092096 Q 0.44504185,4.2166423 0.15647548,4.0570098 L 0.13191664,3.9771936 0.27312997,3.1544725 h 0.27628695 l 0.0306985,0.036838 q 0.0368383,0.42364 0.28242666,0.6016916 0.25172807,0.1780516 0.68150777,0.1780516 0.42364,0 0.613971,-0.147353 0.190331,-0.1534928 0.190331,-0.4481989 0,-0.190331 -0.079816,-0.3131252 Q 2.1887195,2.9395826 2.0413664,2.8536267 1.9001531,2.7676707 1.6975427,2.7001339 1.4949323,2.6325971 1.2493439,2.5405015 1.0283143,2.4606852 0.83798329,2.3685896 0.64765228,2.2703542 0.50643895,2.1414203 0.37136533,2.0063467 0.2915491,1.8221554 0.21173287,1.6379641 0.21173287,1.3800963 q 0,-0.54029449 0.34996347,-0.83500056 0.35610318,-0.29470608 1.08058896,-0.29470608 0.3315443,0 0.6201107,0.0798162 0.2885664,0.0736765 0.4850371,0.17805159 l 0.024559,0.0675368 -0.098235,0.69992691 H 2.3790505 L 2.3483519,1.2450227 Q 2.3115137,0.98715485 2.1273224,0.84594152 1.9431311,0.7047282 1.6115867,0.7047282 q -0.3683826,0 -0.570993,0.14735303 Q 0.83798329,0.99943427 0.83798329,1.2450227 Z"
         id="path1757" />
      <path
         d="m 5.0498211,4.3578556 q -0.042978,0 -0.1289339,-0.00614 -0.085956,-0.00614 -0.1841913,-0.012279 -0.098235,0 -0.1841913,-0.00614 -0.085956,0 -0.1289339,0 H 4.0920263 q -0.042978,0 -0.1350736,0 -0.085956,0.00614 -0.1841913,0.00614 -0.092096,0.00614 -0.1841913,0.012279 -0.085956,0.00614 -0.1289339,0.00614 l -0.00614,-0.024559 0.012279,-0.2087502 0.018419,-0.024559 q 0.092096,0 0.190331,-0.00614 0.098235,-0.012279 0.1473531,-0.061397 0.042978,-0.042978 0.061397,-0.1105148 0.018419,-0.067537 0.030698,-0.190331 0.00614,-0.042978 0.00614,-0.085956 0.00614,-0.042978 0.00614,-0.092096 0.00614,-0.049118 0.00614,-0.1166545 0,-0.067537 0,-0.1657721 V 2.5773397 q 0,-0.1166545 0,-0.1841913 0,-0.073676 -0.00614,-0.1227942 0,-0.049118 -0.00614,-0.085956 0,-0.042978 -0.00614,-0.098235 Q 3.9016953,2.0247658 3.8771365,1.9695084 3.8525776,1.9142511 3.8341585,1.8958319 3.7727614,1.8160157 3.6806658,1.8037363 3.5885701,1.7914569 3.4903347,1.7914569 L 3.4657759,1.766898 V 1.5581479 l 0.024559,-0.018419 H 3.80346 q 0.1412133,0 0.3008457,0 0.1596325,-0.00614 0.2824267,-0.024559 l 0.2148898,-0.030698 0.036838,0.1166544 q -0.012279,0.024559 -0.024559,0.079816 -0.00614,0.049118 -0.012279,0.1105148 0,0.055257 -0.00614,0.1166544 0,0.055257 0,0.092096 0,0.049118 -0.00614,0.092096 0,0.036838 0,0.092096 0,0.049118 -0.00614,0.1289339 0,0.079816 0,0.1964707 v 0.6876475 q 0,0.1227942 0,0.2026105 0.00614,0.073676 0.00614,0.1289339 0.00614,0.055257 0.00614,0.104375 0.00614,0.042978 0.012279,0.098235 0.012279,0.1289339 0.024559,0.1964707 0.018419,0.061397 0.067537,0.1043751 0.049118,0.049118 0.1350736,0.061397 0.092096,0.00614 0.1841913,0.00614 l 0.030699,0.030698 0.012279,0.2026105 z M 3.80346,0.56965458 q 0,-0.0736765 0.030699,-0.14735304 0.030699,-0.0736765 0.085956,-0.12893391 0.055257,-0.0613971 0.1227942,-0.0920956 0.073677,-0.0368383 0.1534928,-0.0368383 0.1534927,0 0.2762869,0.12893391 0.1289339,0.1227942 0.1289339,0.27628695 0,0.0798162 -0.036838,0.15349275 -0.030699,0.0675368 -0.092096,0.12279419 -0.055257,0.0552574 -0.1289339,0.0859559 -0.073676,0.0306985 -0.147353,0.0306985 -0.1596325,0 -0.276287,-0.11665449 Q 3.80346,0.72928704 3.80346,0.56965458 Z"
         id="path1759" />
      <path
         d="M 6.0014747,3.4982962 Q 5.6883495,3.375502 5.5471362,3.1114945 5.4059229,2.847487 5.4059229,2.5282221 q 0,-0.2271693 0.079816,-0.4297797 0.079816,-0.2026105 0.2271692,-0.3499635 0.1534928,-0.1534928 0.3622429,-0.2394487 0.2148899,-0.085956 0.4850371,-0.085956 0.1596325,0 0.3131252,0.030699 0.1596325,0.030699 0.276287,0.085956 0.2578678,-0.00614 0.4788974,-0.030698 0.2271692,-0.024559 0.4236399,-0.079816 l 0.030699,0.024559 -0.042978,0.4604783 -0.030698,0.030698 -0.4604783,-0.049118 -0.00614,0.018419 q 0.098235,0.1105147 0.1534928,0.294706 0.055257,0.1841913 0.055257,0.3499635 0,0.2026104 -0.079816,0.3868017 -0.073676,0.1841913 -0.2210295,0.3254047 -0.1473531,0.1350736 -0.3683826,0.2210295 -0.2210296,0.079816 -0.509596,0.079816 -0.036838,0 -0.098235,0 -0.055257,-0.00614 -0.085956,-0.00614 -0.104375,0.042978 -0.1596324,0.1166545 -0.049118,0.073676 -0.049118,0.1227942 0,0.1350736 0.2885664,0.1719119 l 0.5955518,0.061397 q 0.2026105,0.024559 0.3745223,0.085956 0.1780516,0.061397 0.3069855,0.1657722 0.1350737,0.098235 0.2087502,0.2394487 0.073676,0.147353 0.073676,0.337684 0,0.1780516 -0.079816,0.3561032 Q 7.8679465,5.407746 7.7083141,5.5489593 7.5486816,5.684033 7.266255,5.7699889 q -0.2824267,0.085956 -0.6508093,0.085956 -0.3315443,0 -0.5771327,-0.073676 Q 5.7988643,5.7147315 5.6330921,5.5919373 5.4734597,5.4752828 5.3936434,5.3217901 5.3138272,5.174437 5.3138272,5.0148046 q 0,-0.2578678 0.1657722,-0.4604783 0.1719118,-0.1964707 0.4359194,-0.2762869 l 0.00614,-0.018419 Q 5.7743054,4.2043629 5.6822098,4.1245466 5.5962539,4.0385907 5.5962539,3.9157965 q 0,-0.1596325 0.1289339,-0.2578678 0.1289339,-0.098235 0.2762869,-0.1350736 z M 6.5847472,3.1483328 q 0.1227942,0 0.2148898,-0.049118 0.098235,-0.049118 0.1657722,-0.1289339 0.067537,-0.079816 0.098235,-0.1841913 0.036838,-0.1105148 0.036838,-0.2271693 0,-0.1227942 -0.036838,-0.2455884 Q 7.0268063,2.190538 6.9592695,2.0923026 6.8917327,1.9879276 6.7873576,1.9265305 6.6829825,1.8589937 6.5479089,1.8589937 q -0.1289339,0 -0.2210296,0.061397 -0.092096,0.055257 -0.1596324,0.147353 -0.061397,0.092096 -0.092096,0.2087501 -0.030698,0.1166545 -0.030698,0.2271693 0,0.1166545 0.030698,0.233309 0.036838,0.1166545 0.1043751,0.2087501 0.067537,0.092096 0.1657722,0.1473531 0.104375,0.055257 0.2394487,0.055257 z M 6.3882764,4.4683704 q -0.1350736,0.00614 -0.2333089,0.049118 -0.098235,0.042978 -0.1657722,0.1105148 -0.067537,0.073676 -0.1043751,0.1534927 -0.030698,0.085956 -0.030698,0.1657722 0,0.1780516 0.2148898,0.2885663 0.2148899,0.1166545 0.5832725,0.1166545 0.3315443,0 0.5587136,-0.1105148 0.2271692,-0.104375 0.2271692,-0.3131252 0,-0.1166544 -0.055257,-0.190331 Q 7.3276521,4.6648411 7.2355564,4.6157234 7.1434608,4.5727455 7.0268063,4.5481866 6.9162915,4.5236278 6.799637,4.5113484 Z"
         id="path1761" />
      <path
         d="m 8.352982,1.5581479 0.024559,-0.018419 h 0.3069855 q 0.1412133,0 0.3008458,0 0.1657722,-0.00614 0.2885664,-0.024559 l 0.2148898,-0.030698 0.036838,0.1166544 q -0.012279,0.030699 -0.024559,0.085956 -0.00614,0.049118 -0.018419,0.1105148 -0.00614,0.061397 -0.012279,0.1227942 -0.00614,0.055257 -0.00614,0.098235 l 0.018419,0.012279 Q 9.5502254,1.9081113 9.6361814,1.7975966 9.728277,1.6809421 9.8449315,1.6011258 9.961586,1.5151699 10.108939,1.4660522 q 0.147353,-0.049118 0.337684,-0.049118 0.337684,0 0.601692,0.1719119 0.270147,0.1719119 0.386801,0.4788974 0.06754,-0.1105148 0.159633,-0.2271693 0.0921,-0.1166545 0.21489,-0.2087501 0.122794,-0.098235 0.276287,-0.1534928 0.159632,-0.061397 0.356103,-0.061397 0.190331,0 0.368382,0.049118 0.178052,0.049118 0.325405,0.1534928 0.147353,0.104375 0.251728,0.2640075 0.104375,0.1596325 0.147353,0.3868017 0.0307,0.1596325 0.0307,0.3376841 0.0061,0.1780516 0.0061,0.3561032 v 0.7674637 q 0,0.1227942 0.0307,0.1780516 0.03684,0.055257 0.06754,0.1043751 0.04298,0.061397 0.135073,0.073677 0.09824,0.012279 0.196471,0.012279 l 0.02456,0.024559 0.01228,0.2087502 -0.01228,0.024559 q -0.110515,-0.012279 -0.239449,-0.018419 -0.128934,-0.00614 -0.251728,-0.00614 -0.374522,0 -0.675368,0.018419 l -0.04298,-0.1227942 q 0.01842,-0.079816 0.0307,-0.2087501 0.01842,-0.1289339 0.02456,-0.2271693 0.0061,-0.079816 0.0061,-0.2087501 0.0061,-0.1289339 0.01228,-0.2578679 0.0061,-0.1350736 0.0061,-0.2455884 0.0061,-0.1166544 0.0061,-0.1780515 0,-0.1227942 -0.01228,-0.3069855 -0.0061,-0.190331 -0.03684,-0.319265 -0.04912,-0.1596324 -0.184191,-0.2394486 -0.135074,-0.085956 -0.300846,-0.085956 -0.159632,0 -0.294706,0.049118 -0.128934,0.042978 -0.233309,0.1105148 -0.104375,0.067537 -0.178051,0.1534927 -0.06754,0.085956 -0.104375,0.1596325 0.01228,0.1350736 0.01228,0.2701472 0.0061,0.1350736 0.0061,0.2701473 v 0.7674637 q 0,0.1289339 0.02456,0.190331 0.0307,0.061397 0.07982,0.1105148 0.05526,0.049118 0.135073,0.061397 0.08596,0.00614 0.178052,0.00614 l 0.0307,0.030698 0.01228,0.2026105 -0.01228,0.024559 q -0.04298,0 -0.128934,-0.00614 -0.08596,-0.00614 -0.184192,-0.012279 -0.09824,0 -0.184191,-0.00614 -0.08596,0 -0.128934,0 h -0.331544 q -0.04298,0 -0.135074,0 -0.08596,0.00614 -0.184191,0.00614 -0.0921,0.00614 -0.184191,0.012279 -0.08596,0.00614 -0.128934,0.00614 l -0.01228,-0.024559 0.01228,-0.2087502 0.02456,-0.024559 q 0.09824,0 0.184192,-0.00614 0.0921,-0.012279 0.141213,-0.061397 0.04912,-0.042978 0.06754,-0.1105148 0.02456,-0.067537 0.0307,-0.190331 0,-0.073677 0.0061,-0.190331 0.0061,-0.1227942 0.0061,-0.2455884 0.0061,-0.1227942 0.0061,-0.2271693 0.0061,-0.1105148 0.0061,-0.1657721 0,-0.061397 0,-0.1412134 0,-0.085956 -0.0061,-0.1719118 -0.0061,-0.085956 -0.01842,-0.1657722 -0.0061,-0.079816 -0.02456,-0.1473531 -0.05526,-0.1596324 -0.190331,-0.2394486 -0.128934,-0.085956 -0.294706,-0.085956 -0.202611,0 -0.368383,0.067537 Q 9.8387918,2.0861629 9.7159976,2.1843983 9.5993431,2.2826337 9.5318063,2.3870087 9.4704092,2.4913838 9.4704092,2.5712 v 0.5648533 q 0,0.1350737 0,0.2210296 0.00614,0.085956 0.00614,0.147353 0.00614,0.061397 0.00614,0.1166545 0.00614,0.049118 0.012279,0.1105148 0.012279,0.1289339 0.055257,0.1964707 0.042978,0.061397 0.1105148,0.1166545 0.049118,0.042978 0.1105148,0.049118 0.067537,0.00614 0.1412133,0.00614 l 0.030699,0.030698 0.012279,0.2026105 -0.012279,0.024559 q -0.042978,0 -0.1350737,-0.00614 -0.085956,-0.00614 -0.1841913,-0.012279 -0.092096,0 -0.1841913,-0.00614 -0.085956,0 -0.1289339,0 H 8.9792324 q -0.042978,0 -0.1350736,0 -0.085956,0.00614 -0.1841913,0.00614 -0.092096,0.00614 -0.1841913,0.012279 -0.085956,0.00614 -0.1289339,0.00614 l -0.00614,-0.024559 0.012279,-0.2087502 0.018419,-0.024559 q 0.098235,0 0.1780516,-0.012279 0.085956,-0.012279 0.1350736,-0.061397 0.042978,-0.042978 0.073676,-0.1043751 0.030699,-0.067537 0.042978,-0.190331 0.00614,-0.098235 0.012279,-0.1964707 0.00614,-0.1043751 0.00614,-0.3254046 v -0.509596 q 0,-0.1289339 0,-0.2148898 0,-0.092096 -0.00614,-0.1596325 0,-0.067537 -0.00614,-0.1227942 0,-0.055257 -0.00614,-0.1166545 Q 8.7889014,2.0247658 8.7643425,1.9695084 8.7397837,1.9142511 8.7213646,1.8958319 8.6599675,1.8160157 8.5678718,1.8037363 8.4757762,1.7914569 8.3775408,1.7914569 L 8.352982,1.766898 Z"
         id="path1763" />
      <path
         d="m 16.003054,4.2903188 q 0.01842,-0.055257 0.02456,-0.1596325 0.01228,-0.104375 0.0307,-0.190331 l -0.0061,-0.018419 q -0.07368,0.092096 -0.171911,0.1780516 -0.0921,0.085956 -0.208751,0.1534927 -0.116654,0.067537 -0.251728,0.1043751 -0.128934,0.042978 -0.276287,0.042978 -0.221029,0 -0.386801,-0.067537 Q 14.59092,4.26576 14.480406,4.1552452 14.369891,4.0447304 14.308494,3.8973774 q -0.05526,-0.1473531 -0.05526,-0.3069855 0,-0.2394487 0.104375,-0.4175003 0.104376,-0.1780516 0.276287,-0.2885664 0.159633,-0.104375 0.374523,-0.1596324 0.21489,-0.061397 0.4175,-0.092096 0.20261,-0.030698 0.368383,-0.036838 0.165772,-0.012279 0.221029,-0.012279 h 0.08596 q -0.0061,-0.190331 -0.02456,-0.294706 -0.01842,-0.1105148 -0.04912,-0.1841913 -0.05526,-0.1227942 -0.184192,-0.1719119 -0.122794,-0.055257 -0.294706,-0.055257 -0.104375,0 -0.227169,0.018419 -0.116655,0.012279 -0.22103,0.055257 -0.104375,0.042978 -0.184191,0.1227942 -0.07368,0.073676 -0.08596,0.1964707 l -0.02456,0.018419 h -0.19647 l -0.05526,-0.5771328 0.01842,-0.036838 q 0.03684,-0.036838 0.141214,-0.079816 0.104375,-0.042978 0.251728,-0.079816 0.147353,-0.042978 0.319265,-0.067537 0.178051,-0.030699 0.356103,-0.030699 0.239449,0 0.448199,0.061397 0.20875,0.055257 0.356103,0.1719119 0.153493,0.1166545 0.239449,0.2947061 0.08596,0.1719119 0.08596,0.4052209 0,0.2517281 -0.0061,0.4297797 0,0.1780515 -0.0061,0.3315443 -0.0061,0.1534927 -0.01228,0.3008458 0,0.1412133 0,0.3192649 0.01228,0.1412133 0.0307,0.2026104 0.01842,0.061397 0.0614,0.098235 0.04912,0.049118 0.147353,0.061397 0.104375,0.00614 0.190331,0.00614 l 0.01842,0.024559 0.01228,0.2087502 -0.0061,0.024559 q -0.104375,-0.012279 -0.239449,-0.018419 -0.135073,-0.00614 -0.251728,-0.00614 -0.171912,0 -0.343823,0 -0.171912,0.00614 -0.325405,0.018419 z m 0,-0.6630887 q 0.01842,-0.030698 0.03684,-0.073676 0.02456,-0.042978 0.0307,-0.1043751 l 0.0307,-0.5218753 h -0.05526 q -0.190331,0 -0.374523,0.024559 -0.184191,0.024559 -0.331544,0.092096 -0.147353,0.067537 -0.239449,0.190331 -0.0921,0.1227942 -0.0921,0.3192649 0,0.1657722 0.07982,0.2640075 0.08596,0.098235 0.227169,0.098235 0.104375,0 0.20875,-0.024559 0.110515,-0.030699 0.202611,-0.073677 0.09209,-0.042978 0.165772,-0.092096 0.07368,-0.055257 0.110515,-0.098235 z"
         id="path1765" />
      <path
         d="m 18.508044,2.1598395 q 0.0614,-0.1166545 0.135074,-0.2455884 0.07982,-0.128934 0.178052,-0.2394487 0.09824,-0.1105148 0.221029,-0.1841913 0.128934,-0.073677 0.288567,-0.073677 0.04912,0 0.116654,0.012279 0.07368,0.00614 0.141213,0.024559 0.07368,0.018419 0.141214,0.042978 0.06754,0.024559 0.104375,0.055257 l 0.04298,0.036838 -0.07368,0.6630887 h -0.264007 q -0.01842,-0.073676 -0.09824,-0.147353 -0.07368,-0.079816 -0.233309,-0.079816 -0.141213,0 -0.257867,0.073677 -0.116655,0.067537 -0.202611,0.1719118 -0.08596,0.1043751 -0.135073,0.2271693 -0.04912,0.1166545 -0.04912,0.2148898 v 0.42364 q 0,0.233309 0,0.3499635 0.0061,0.1166545 0.01228,0.2026104 0.01228,0.1350737 0.0307,0.2210296 0.02456,0.079816 0.07368,0.1227942 0.02456,0.024559 0.07368,0.042978 0.05526,0.012279 0.110515,0.018419 0.05526,0.00614 0.104375,0.00614 0.05526,0 0.08596,0 l 0.0307,0.030698 0.01228,0.2026105 -0.01228,0.024559 q -0.03684,0 -0.122794,-0.00614 -0.08596,-0.00614 -0.184191,-0.012279 -0.09824,0 -0.184192,-0.00614 -0.08596,0 -0.122794,0 h -0.392941 q -0.04298,0 -0.135074,0 -0.08596,0.00614 -0.184191,0.00614 -0.09824,0.00614 -0.190331,0.012279 -0.08596,0.00614 -0.128934,0.00614 l -0.0061,-0.024559 0.01228,-0.2087502 0.01842,-0.024559 q 0.104375,0 0.19647,-0.00614 0.0921,-0.012279 0.141214,-0.061397 0.04912,-0.042978 0.06754,-0.1105148 0.02456,-0.067537 0.03684,-0.233309 0.0061,-0.073676 0.0061,-0.1964707 0,-0.1227942 0,-0.3438237 V 2.7001339 q 0,-0.1289339 0,-0.2148898 0,-0.092096 -0.0061,-0.1596325 0,-0.067537 -0.0061,-0.1227942 0,-0.055257 -0.0061,-0.1166545 -0.01228,-0.061397 -0.03684,-0.1166545 -0.02456,-0.055257 -0.04298,-0.073677 -0.0614,-0.079816 -0.153493,-0.092096 -0.0921,-0.012279 -0.190331,-0.012279 L 17.445875,1.766898 V 1.5581479 l 0.02456,-0.018419 h 0.110515 q 0.135074,0 0.349964,0 0.21489,-0.00614 0.374522,-0.024559 l 0.21489,-0.030698 0.03684,0.1166544 q -0.03684,0.1166545 -0.05526,0.2640076 -0.01228,0.147353 -0.01228,0.2885663 z"
         id="path1767" />
    </g>
    <g
       aria-label="v1.3"
       id="text2041-9"
       style="font-size:2.86521px;line-height:1.25;font-family:Quattrocento;-inkscape-font-specification:'Quattrocento, Normal';stroke-width:0.153494">
      <path
         d="M 0.79378192,6.7636876 0.76512982,6.7493615 0.59321722,6.2909279 Q 0.58462159,6.265141 0.55596949,6.196376 0.5301826,6.1276109 0.49580008,6.0445198 0.46141756,5.9614287 0.42416983,5.8726072 0.38978731,5.7809205 0.36113521,5.7121555 0.3324831,5.6433904 0.30956142,5.6032775 0.28090932,5.5574341 0.24366159,5.5316472 0.20927907,5.5058604 0.14910966,5.5001299 L 0.1319184,5.4858039 v -0.040113 l 0.0114608,-0.011461 q 0.0487086,0.00573 0.10314756,0.011461 0.054439,0.00573 0.10028235,0.00573 h 0.1117432 q 0.0458434,0 0.10887798,-0.00573 0.0658998,-0.00573 0.12320403,-0.011461 l 0.0114608,0.011461 v 0.034383 l -0.0114608,0.011461 q -0.0630346,0.00573 -0.10601277,0.034383 -0.0401129,0.025787 -0.0401129,0.077361 0,0.034383 0.0257869,0.123204 0.0286521,0.085956 0.0630346,0.1862387 0.0343825,0.097417 0.0658998,0.1833734 0.0315173,0.083091 0.0429782,0.1117432 L 0.88260344,6.5803141 1.0201335,6.250815 q 0.020056,-0.048709 0.054439,-0.1317997 0.034382,-0.083091 0.068765,-0.177643 0.034382,-0.094552 0.057304,-0.1833735 0.025787,-0.091687 0.025787,-0.1547213 0,-0.063035 -0.045843,-0.083091 -0.045843,-0.022922 -0.1031476,-0.028652 l -0.011461,-0.011461 v -0.034383 l 0.011461,-0.011461 q 0.1117432,0.017191 0.2091604,0.017191 h 0.1174736 q 0.048709,0 0.094552,-0.00573 0.048709,-0.00573 0.1031476,-0.011461 l 0.011461,0.011461 v 0.040113 l -0.017191,0.014326 q -0.048709,0.00573 -0.085956,0.028652 -0.034382,0.022922 -0.0659,0.074496 -0.025787,0.045843 -0.060169,0.1146084 -0.031517,0.068765 -0.0659,0.1489909 -0.031517,0.080226 -0.0659,0.163317 -0.031517,0.083091 -0.060169,0.1547213 -0.025787,0.07163 -0.045843,0.1260693 -0.017191,0.051574 -0.025787,0.07163 L 0.97429016,6.7493615 Z"
         id="path1770" />
      <path
         d="m 1.7307038,5.1620351 0.0086,-0.017191 Q 1.8625035,5.0846745 1.9742467,5.0187746 2.0859899,4.9500096 2.1948679,4.8497272 h 0.020056 l 0.063035,0.025787 q -0.00287,0.022922 -0.00573,0.054439 0,0.028652 -0.00287,0.060169 0,0.031517 -0.00287,0.060169 0,0.028652 0,0.045843 -0.00287,0.045843 -0.00573,0.085956 0,0.040113 -0.00287,0.094552 0,0.054439 0,0.1317997 0,0.077361 0,0.1976995 v 0.4039946 q 0,0.1203388 0,0.1976995 0,0.074496 0,0.1260693 0.00287,0.051574 0.00287,0.091687 0.00287,0.040113 0.0086,0.088821 0.00573,0.060169 0.025787,0.091687 0.020056,0.028652 0.042978,0.048709 0.025787,0.020056 0.080226,0.031517 0.054439,0.011461 0.097417,0.011461 l 0.014326,0.014326 0.00573,0.037248 -0.00573,0.011461 q -0.020056,0 -0.060169,-0.00287 -0.040113,-0.00287 -0.085956,-0.00573 -0.045843,0 -0.085956,-0.00287 -0.040113,0 -0.060169,0 H 2.074529 q -0.020056,0 -0.060169,0 -0.040113,0.00287 -0.085956,0.00287 -0.045843,0.00287 -0.085956,0.00573 -0.040113,0.00287 -0.060169,0.00287 l -0.00573,-0.011461 0.00573,-0.040113 0.0086,-0.011461 q 0.045843,0 0.1031475,-0.0086 0.060169,-0.011461 0.083091,-0.034382 0.022922,-0.020056 0.042978,-0.051574 0.020056,-0.031517 0.025787,-0.088821 0.00287,-0.037248 0.00573,-0.07163 0.00287,-0.037248 0.00287,-0.083091 0.00287,-0.048709 0.00287,-0.1146084 0,-0.0659 0,-0.1661821 V 5.6118731 q 0,-0.1174736 0,-0.1891038 0,-0.074495 -0.00287,-0.1232041 0,-0.048709 -0.00287,-0.083091 -0.00287,-0.037248 -0.00573,-0.083091 l -0.3065774,0.077361 -0.0086,-0.011461 z"
         id="path1772" />
      <path
         d="m 2.8022872,6.6490792 q 0,-0.054439 0.037248,-0.094552 0.037248,-0.042978 0.094552,-0.042978 0.054439,0 0.094552,0.042978 0.042978,0.040113 0.042978,0.094552 0,0.054439 -0.042978,0.094552 -0.040113,0.037248 -0.094552,0.037248 -0.057304,0 -0.094552,-0.037248 -0.037248,-0.040113 -0.037248,-0.094552 z"
         id="path1774" />
      <path
         d="m 3.5357783,6.3281756 q 0.00287,0.057304 0.031517,0.1117432 0.031517,0.054439 0.085956,0.097417 0.057304,0.040113 0.1375301,0.0659 0.083091,0.025787 0.1891039,0.025787 0.1289344,0 0.2148907,-0.037248 0.085956,-0.040113 0.1375301,-0.1002824 0.051574,-0.060169 0.07163,-0.1317997 0.022922,-0.07163 0.022922,-0.1403952 0,-0.077361 -0.025787,-0.1518562 -0.022922,-0.077361 -0.07163,-0.1346649 -0.048709,-0.060169 -0.123204,-0.097417 -0.074496,-0.037248 -0.1747778,-0.037248 h -0.091687 l -0.014326,-0.011461 -0.0086,-0.080226 0.014326,-0.014326 h 0.051574 q 0.083091,0 0.1461257,-0.031517 0.0659,-0.034382 0.108878,-0.085956 0.045843,-0.054439 0.068765,-0.123204 0.022922,-0.07163 0.022922,-0.1461258 0,-0.060169 -0.017191,-0.1146084 Q 4.295059,5.133383 4.2549461,5.0904049 4.2148331,5.0474267 4.1432029,5.0216399 4.0744378,4.995853 3.9712903,4.995853 q -0.1031476,0 -0.1719126,0.028652 -0.0659,0.025787 -0.108878,0.077361 -0.042978,0.048709 -0.0659,0.1203389 -0.022922,0.068765 -0.034382,0.1575865 l -0.011461,0.011461 h -0.094552 l -0.034383,-0.2062951 0.00573,-0.025787 q 0.028652,-0.054439 0.077361,-0.1117432 0.051574,-0.057304 0.1203388,-0.1002823 0.07163,-0.045843 0.163317,-0.074496 0.091687,-0.028652 0.2062951,-0.028652 0.097417,0 0.1919691,0.028652 0.094552,0.025787 0.1661822,0.080226 0.074496,0.054439 0.1203388,0.1375301 0.045843,0.083091 0.045843,0.1948343 0,0.088821 -0.025787,0.1604517 -0.025787,0.07163 -0.0659,0.1260693 -0.040113,0.054439 -0.091687,0.091687 -0.048709,0.034382 -0.094552,0.051574 v 0.011461 q 0.1719126,0.031517 0.272195,0.1661822 0.1031475,0.1346649 0.1031475,0.3151731 0,0.1260693 -0.051574,0.232082 -0.048709,0.1060128 -0.1403953,0.1833735 -0.088821,0.074495 -0.2177559,0.1174736 -0.1289345,0.040113 -0.2836558,0.040113 -0.3667469,0 -0.5472551,-0.2607341 l -0.00287,-0.025787 0.031517,-0.177643 h 0.094552 z"
         id="path1776" />
    </g>
    <g
       aria-label="游래游랛游랪游랙游랚"
       id="text12821-7-2"
       style="font-size:2.93859px;line-height:1.25;font-family:Symbola;-inkscape-font-specification:'Symbola, Normal';stroke-width:0.10018">
      <path
         d="M 10.14112,6.7163086 H 8.1394923 L 9.1410234,4.806512 Z M 9.3964282,5.749214 9.1410234,5.2484484 8.8841838,5.749214 Z M 9.7867097,6.5111238 9.4954335,5.941485 H 8.7851785 L 8.4939023,6.5111238 Z"
         id="path1779" />
      <path
         d="M 12.401022,4.8696458 11.400925,6.7808772 10.399394,4.8696458 Z m -0.35441,0.2051848 h -1.292808 l 0.647121,1.2641102 z"
         id="path1781" />
      <path
         d="m 14.573397,5.7951295 q 0,0.2597094 -0.127702,0.4792427 -0.127702,0.2195333 -0.35154,0.3501055 -0.223838,0.1291372 -0.477808,0.1291372 -0.396021,0 -0.677253,-0.2812322 -0.279798,-0.2812323 -0.279798,-0.6772532 0,-0.2568397 0.126268,-0.476373 0.127702,-0.2209682 0.34867,-0.3501055 0.222403,-0.1305721 0.482113,-0.1305721 0.255405,0 0.477808,0.1305721 0.223838,0.1305722 0.35154,0.3515403 0.127702,0.2209682 0.127702,0.4749382 z m -0.199445,-0.093266 q -0.03587,-0.2884066 -0.252535,-0.4778079 -0.215229,-0.1908361 -0.50507,-0.1908361 -0.289842,0 -0.50507,0.1908361 -0.213794,0.1894013 -0.252535,0.4778079 z m 0,0.1879664 h -1.51521 q 0.03731,0.2869717 0.252535,0.4778079 0.215228,0.1908362 0.50507,0.1908362 0.291276,0 0.50507,-0.1894013 0.213794,-0.1894014 0.252535,-0.4792428 z"
         id="path1783" />
      <path
         d="M 16.833299,6.7163086 H 14.831672 L 15.833203,4.806512 Z M 16.478889,6.5111238 15.833203,5.2484484 15.186082,6.5111238 Z"
         id="path1785" />
      <path
         d="M 19.093201,4.8696458 18.093105,6.7808772 17.091574,4.8696458 Z m -0.35441,0.2051848 h -1.292807 l 0.291276,0.5710736 h 0.710255 z M 18.34851,5.8381752 h -0.512245 l 0.25684,0.5007656 z"
         id="path1787" />
    </g>
  </g>
</svg>
